M48
;DRILL file {KiCad 4.0.7} date 09/04/18 00:29:58
;FORMAT={3:3/ absolute / metric / suppress trailing zeros}
FMAT,2
METRIC,LZ
T1C0.400
T2C0.800
T3C1.000
%
G90
G05
M71
T1
X106825Y-09022
X106825Y-09276
X106825Y-0953
X106825Y-09784
X106825Y-10038
X106825Y-10292
X106825Y-10546
X106825Y-108
X106825Y-11054
X106825Y-11308
X106825Y-11562
X106825Y-11816
X106825Y-1207
X106825Y-12324
X106825Y-12578
X109258Y-114331
X11002Y-101631
X110731Y-114331
X113175Y-09022
X113175Y-09276
X113175Y-0953
X113175Y-09784
X113175Y-10038
X113175Y-10292
X113175Y-10546
X113175Y-108
X113175Y-11054
X113175Y-11308
X113175Y-11562
X113175Y-11816
X113175Y-1207
X113175Y-12324
X113175Y-12578
X118Y-106
X118Y-109
X118Y-112
X118681Y-089845
X118732Y-092995
X118732Y-096043
X12051Y-100488
X12051Y-102901
X12051Y-114331
X12051Y-11776
X121Y-09
X121Y-093
X121Y-096
X121Y-106
X121Y-109
X121Y-112
X12305Y-097186
X123304Y-11649
X123558Y-105949
X123558Y-108997
X123558Y-112045
X124Y-1255
X124066Y-100488
X124066Y-102647
X124117Y-103892
X124269Y-117658
X125Y-09
X125Y-093
X125Y-096
X126098Y-113036
X129Y-09
X129Y-093
X129Y-096
X129Y-131
X130797Y-113061
X130797Y-117379
X131813Y-107473
X131813Y-112934
X132Y-09
X132Y-093
X132Y-096
X133Y-131
X136Y-09
X136Y-093
X136Y-096
X138Y-131
X139052Y-122078
X14Y-09
X14Y-093
X14Y-096
X140449Y-120935
X140703Y-104298
X142Y-131
T2
X128003Y-101377
X128003Y-103917
X128003Y-106457
X128003Y-108997
X128003Y-111537
X128003Y-114077
X128003Y-116617
X128003Y-119157
X135623Y-101377
X135623Y-103917
X135623Y-106457
X135623Y-108997
X135623Y-111537
X135623Y-114077
X135623Y-116617
X135623Y-119157
X15Y-092
X15Y-094
X15Y-096
T3
X10873Y-09022
X10873Y-09276
X10873Y-0953
X10873Y-09784
X10873Y-10038
X10873Y-10292
X10873Y-10546
X10873Y-108
X10873Y-11054
X10873Y-11308
X10873Y-11562
X10873Y-11816
X10873Y-1207
X10873Y-12324
X10873Y-12578
X11127Y-09022
X11127Y-09276
X11127Y-0953
X11127Y-09784
X11127Y-10038
X11127Y-10292
X11127Y-10546
X11127Y-108
X11127Y-11054
X11127Y-11308
X11127Y-11562
X11127Y-11816
X11127Y-1207
X11127Y-12324
X11127Y-12578
X118Y-131
X12054Y-131
X127622Y-124872
X130162Y-124872
X147815Y-104425
X147815Y-106965
X147815Y-11268
X147815Y-11522
X147815Y-120935
X147815Y-123475
T2
X14965Y-0895G85X15035Y-0895
G05
X14965Y-0985G85X15035Y-0985
G05
T0
M30
