G04 #@! TF.FileFunction,Soldermask,Top*
%FSLAX46Y46*%
G04 Gerber Fmt 4.6, Leading zero omitted, Abs format (unit mm)*
G04 Created by KiCad (PCBNEW 4.0.7) date 09/04/18 00:29:55*
%MOMM*%
%LPD*%
G01*
G04 APERTURE LIST*
%ADD10C,0.100000*%
%ADD11C,3.600000*%
%ADD12R,1.150000X1.200000*%
%ADD13C,2.600000*%
%ADD14R,2.100000X2.100000*%
%ADD15O,2.100000X2.100000*%
%ADD16R,2.000000X1.400000*%
%ADD17R,2.800000X2.000000*%
%ADD18O,2.800000X2.000000*%
%ADD19R,1.300000X0.900000*%
%ADD20R,3.900000X3.200000*%
%ADD21R,1.750000X1.750000*%
%ADD22O,1.750000X1.750000*%
%ADD23R,0.850000X1.000000*%
%ADD24R,1.000000X0.850000*%
%ADD25R,0.900000X1.300000*%
%ADD26C,1.200000*%
%ADD27C,1.400000*%
%ADD28R,3.550000X1.400000*%
%ADD29C,2.100000*%
G04 APERTURE END LIST*
D10*
D11*
X107000000Y-130000000D03*
D12*
X123939000Y-124352000D03*
X123939000Y-122852000D03*
D11*
X107000000Y-86000000D03*
X151000000Y-86000000D03*
X151000000Y-130000000D03*
D13*
X111000000Y-130000000D03*
X111000000Y-86000000D03*
X147000000Y-86000000D03*
X147000000Y-130000000D03*
D14*
X118000000Y-131000000D03*
D15*
X120540000Y-131000000D03*
D16*
X139052000Y-101274000D03*
X139052000Y-104274000D03*
D14*
X147815000Y-112680000D03*
D15*
X147815000Y-115220000D03*
D17*
X128003000Y-101377000D03*
D18*
X135623000Y-119157000D03*
X128003000Y-103917000D03*
X135623000Y-116617000D03*
X128003000Y-106457000D03*
X135623000Y-114077000D03*
X128003000Y-108997000D03*
X135623000Y-111537000D03*
X128003000Y-111537000D03*
X135623000Y-108997000D03*
X128003000Y-114077000D03*
X135623000Y-106457000D03*
X128003000Y-116617000D03*
X135623000Y-103917000D03*
X128003000Y-119157000D03*
X135623000Y-101377000D03*
D14*
X147815000Y-120935000D03*
D15*
X147815000Y-123475000D03*
D14*
X147815000Y-104425000D03*
D15*
X147815000Y-106965000D03*
D12*
X125488400Y-117670400D03*
X125488400Y-119170400D03*
D19*
X115176000Y-128948000D03*
X115176000Y-130448000D03*
D20*
X150000000Y-98500000D03*
D21*
X150000000Y-92000000D03*
D22*
X150000000Y-94000000D03*
X150000000Y-96000000D03*
D20*
X150000000Y-89500000D03*
D23*
X143878000Y-115000000D03*
X143878000Y-112900000D03*
D24*
X117428000Y-116490000D03*
X119528000Y-116490000D03*
X129493000Y-121951000D03*
X131593000Y-121951000D03*
D25*
X123038000Y-100488000D03*
X121538000Y-100488000D03*
X123038000Y-98456000D03*
X121538000Y-98456000D03*
D14*
X130162000Y-124872000D03*
D15*
X127622000Y-124872000D03*
D26*
X110000000Y-121970000D03*
D27*
X110000000Y-124510000D03*
D26*
X110000000Y-94030000D03*
D28*
X107475000Y-90220000D03*
X107475000Y-102920000D03*
X107475000Y-100380000D03*
X107475000Y-97840000D03*
X107475000Y-95300000D03*
X107475000Y-92760000D03*
D26*
X106825000Y-90220000D03*
D28*
X112525000Y-90220000D03*
X112525000Y-92760000D03*
X112525000Y-95300000D03*
X112525000Y-97840000D03*
X112525000Y-100380000D03*
X112525000Y-102920000D03*
X107475000Y-105460000D03*
X112525000Y-105460000D03*
X107475000Y-108000000D03*
X112525000Y-108000000D03*
X107475000Y-110540000D03*
X112525000Y-110540000D03*
X107475000Y-113080000D03*
X112525000Y-113080000D03*
X107475000Y-115620000D03*
X112525000Y-115620000D03*
X107475000Y-118160000D03*
X112525000Y-118160000D03*
X107475000Y-120700000D03*
X112525000Y-120700000D03*
X107475000Y-123240000D03*
X112525000Y-123240000D03*
X107475000Y-125780000D03*
X112525000Y-125780000D03*
D26*
X106825000Y-92760000D03*
X106825000Y-95300000D03*
X106825000Y-97840000D03*
X106825000Y-100380000D03*
X106825000Y-102920000D03*
X106825000Y-105460000D03*
X106825000Y-108000000D03*
X106825000Y-110540000D03*
X106825000Y-113080000D03*
X106825000Y-115620000D03*
X106825000Y-118160000D03*
X106825000Y-120700000D03*
X106825000Y-123240000D03*
X106825000Y-125780000D03*
X113175000Y-90220000D03*
X113175000Y-92760000D03*
X113175000Y-95300000D03*
X113175000Y-97840000D03*
X113175000Y-100380000D03*
X113175000Y-102920000D03*
X113175000Y-105460000D03*
X113175000Y-108000000D03*
X113175000Y-110540000D03*
X113175000Y-113080000D03*
X113175000Y-115620000D03*
X113175000Y-118160000D03*
X113175000Y-120700000D03*
X113175000Y-123240000D03*
X113175000Y-125780000D03*
D27*
X110000000Y-91490000D03*
D29*
X108730000Y-90220000D03*
X111270000Y-90220000D03*
X108730000Y-92760000D03*
X111270000Y-92760000D03*
X108730000Y-95300000D03*
X111270000Y-95300000D03*
X108730000Y-97840000D03*
X111270000Y-97840000D03*
X108730000Y-100380000D03*
X111270000Y-100380000D03*
X108730000Y-102920000D03*
X111270000Y-102920000D03*
X108730000Y-105460000D03*
X111270000Y-105460000D03*
X108730000Y-108000000D03*
X111270000Y-108000000D03*
X108730000Y-110540000D03*
X111270000Y-110540000D03*
X108730000Y-113080000D03*
X111270000Y-113080000D03*
X108730000Y-115620000D03*
X111270000Y-115620000D03*
X108730000Y-118160000D03*
X111270000Y-118160000D03*
X108730000Y-120700000D03*
X111270000Y-120700000D03*
X108730000Y-123240000D03*
X111270000Y-123240000D03*
X108730000Y-125780000D03*
X111270000Y-125780000D03*
M02*
