G04 #@! TF.FileFunction,Copper,L2,Bot,Signal*
%FSLAX46Y46*%
G04 Gerber Fmt 4.6, Leading zero omitted, Abs format (unit mm)*
G04 Created by KiCad (PCBNEW 4.0.7) date 09/04/18 00:29:55*
%MOMM*%
%LPD*%
G01*
G04 APERTURE LIST*
%ADD10C,0.100000*%
%ADD11R,1.700000X1.700000*%
%ADD12O,1.700000X1.700000*%
%ADD13R,2.400000X1.600000*%
%ADD14O,2.400000X1.600000*%
%ADD15R,3.500000X2.800000*%
%ADD16R,1.350000X1.350000*%
%ADD17O,1.350000X1.350000*%
%ADD18R,3.150000X1.000000*%
%ADD19C,0.800000*%
%ADD20C,1.700000*%
%ADD21C,0.600000*%
%ADD22C,1.000000*%
%ADD23C,0.750000*%
%ADD24C,0.400000*%
%ADD25C,0.250000*%
%ADD26C,0.254000*%
G04 APERTURE END LIST*
D10*
D11*
X118000000Y-131000000D03*
D12*
X120540000Y-131000000D03*
D11*
X147815000Y-112680000D03*
D12*
X147815000Y-115220000D03*
D13*
X128003000Y-101377000D03*
D14*
X135623000Y-119157000D03*
X128003000Y-103917000D03*
X135623000Y-116617000D03*
X128003000Y-106457000D03*
X135623000Y-114077000D03*
X128003000Y-108997000D03*
X135623000Y-111537000D03*
X128003000Y-111537000D03*
X135623000Y-108997000D03*
X128003000Y-114077000D03*
X135623000Y-106457000D03*
X128003000Y-116617000D03*
X135623000Y-103917000D03*
X128003000Y-119157000D03*
X135623000Y-101377000D03*
D11*
X147815000Y-120935000D03*
D12*
X147815000Y-123475000D03*
D11*
X147815000Y-104425000D03*
D12*
X147815000Y-106965000D03*
D15*
X150000000Y-98500000D03*
D16*
X150000000Y-92000000D03*
D17*
X150000000Y-94000000D03*
X150000000Y-96000000D03*
D15*
X150000000Y-89500000D03*
D11*
X130162000Y-124872000D03*
D12*
X127622000Y-124872000D03*
D18*
X107475000Y-90220000D03*
D19*
X106825000Y-90220000D03*
D18*
X112555000Y-90220000D03*
X107475000Y-92760000D03*
X112555000Y-92760000D03*
X107475000Y-95300000D03*
X112555000Y-95300000D03*
X107475000Y-97840000D03*
X112555000Y-97840000D03*
X107475000Y-100380000D03*
X112555000Y-100380000D03*
X107475000Y-102920000D03*
X112555000Y-102920000D03*
X107475000Y-105460000D03*
X112555000Y-105460000D03*
X107475000Y-108000000D03*
X112555000Y-108000000D03*
X107475000Y-110540000D03*
X112555000Y-110540000D03*
X107475000Y-113080000D03*
X112555000Y-113080000D03*
X107475000Y-115620000D03*
X112555000Y-115620000D03*
X107475000Y-118160000D03*
X112555000Y-118160000D03*
X107475000Y-120700000D03*
X112555000Y-120700000D03*
X107475000Y-123240000D03*
X112555000Y-123240000D03*
X107475000Y-125780000D03*
X112555000Y-125780000D03*
D19*
X106825000Y-92760000D03*
X106825000Y-95300000D03*
X106825000Y-97840000D03*
X106825000Y-100380000D03*
X106825000Y-102920000D03*
X106825000Y-105460000D03*
X106825000Y-108000000D03*
X106825000Y-110540000D03*
X106825000Y-113080000D03*
X106825000Y-115620000D03*
X106825000Y-118160000D03*
X106825000Y-120700000D03*
X106825000Y-123240000D03*
X106825000Y-125780000D03*
X113175000Y-90220000D03*
X113175000Y-92760000D03*
X113175000Y-95300000D03*
X113175000Y-97840000D03*
X113175000Y-100380000D03*
X113175000Y-102920000D03*
X113175000Y-105460000D03*
X113175000Y-108000000D03*
X113175000Y-110540000D03*
X113175000Y-113080000D03*
X113175000Y-115620000D03*
X113175000Y-118160000D03*
X113175000Y-120700000D03*
X113175000Y-123240000D03*
X113175000Y-125780000D03*
D20*
X108730000Y-90220000D03*
X111270000Y-90220000D03*
X108730000Y-92760000D03*
X111270000Y-92760000D03*
X108730000Y-95300000D03*
X111270000Y-95300000D03*
X108730000Y-97840000D03*
X111270000Y-97840000D03*
X108730000Y-100380000D03*
X111270000Y-100380000D03*
X108730000Y-102920000D03*
X111270000Y-102920000D03*
X108730000Y-105460000D03*
X111270000Y-105460000D03*
X108730000Y-108000000D03*
X111270000Y-108000000D03*
X108730000Y-110540000D03*
X111270000Y-110540000D03*
X108730000Y-113080000D03*
X111270000Y-113080000D03*
X108730000Y-115620000D03*
X111270000Y-115620000D03*
X108730000Y-118160000D03*
X111270000Y-118160000D03*
X108730000Y-120700000D03*
X111270000Y-120700000D03*
X108730000Y-123240000D03*
X111270000Y-123240000D03*
X108730000Y-125780000D03*
X111270000Y-125780000D03*
D21*
X118732000Y-92995000D03*
X118681200Y-89845400D03*
X118732000Y-96043000D03*
X121000000Y-96000000D03*
X121000000Y-93000000D03*
X121000000Y-90000000D03*
X129000000Y-131000000D03*
X133000000Y-131000000D03*
X138000000Y-131000000D03*
X142000000Y-131000000D03*
X123558000Y-112045000D03*
X121000000Y-112000000D03*
X118000000Y-112000000D03*
X123558000Y-105949000D03*
X123558000Y-108997000D03*
X121000000Y-106000000D03*
X118000000Y-106000000D03*
X118000000Y-109000000D03*
X121000000Y-109000000D03*
X140703000Y-104298000D03*
X136000000Y-96000000D03*
X136000000Y-93000000D03*
X136000000Y-90000000D03*
X132000000Y-90000000D03*
X132000000Y-93000000D03*
X132000000Y-96000000D03*
X129000000Y-96000000D03*
X129000000Y-93000000D03*
X129000000Y-90000000D03*
X125000000Y-90000000D03*
X125000000Y-93000000D03*
X125000000Y-96000000D03*
X140000000Y-90000000D03*
X140000000Y-93000000D03*
X140000000Y-96000000D03*
X124269200Y-117658400D03*
X124000000Y-125500000D03*
X131813000Y-112934000D03*
X131813000Y-107473000D03*
X120510000Y-117760000D03*
X110731000Y-114331000D03*
X120510000Y-114331000D03*
X109257800Y-114331000D03*
X124116800Y-103891600D03*
X139052000Y-122078000D03*
X140449000Y-120935000D03*
X124066000Y-102647000D03*
X110019800Y-101631000D03*
X124066000Y-100488000D03*
X126098000Y-113035600D03*
X123304000Y-116490000D03*
X130797000Y-113061000D03*
X130797000Y-117379000D03*
X123050000Y-97186000D03*
X120510000Y-102901000D03*
X120510000Y-100488000D03*
D22*
X107475000Y-90220000D02*
X107475000Y-92760000D01*
X107475000Y-92760000D02*
X107475000Y-95300000D01*
D23*
X107475000Y-95300000D02*
X108591000Y-95300000D01*
X108591000Y-95300000D02*
X109867400Y-96576400D01*
X128003000Y-108997000D02*
X115607800Y-108997000D01*
X115125200Y-97135200D02*
X114566400Y-96576400D01*
X115125200Y-108514400D02*
X115125200Y-97135200D01*
X115607800Y-108997000D02*
X115125200Y-108514400D01*
D24*
X114566400Y-96576400D02*
X109867400Y-96576400D01*
X118681200Y-89845400D02*
X118630400Y-89845400D01*
X118732000Y-89896200D02*
X118732000Y-92995000D01*
X118681200Y-89845400D02*
X118732000Y-89896200D01*
X107475000Y-89418400D02*
X107475000Y-90220000D01*
X108927600Y-87965800D02*
X107475000Y-89418400D01*
X116750800Y-87965800D02*
X108927600Y-87965800D01*
X118630400Y-89845400D02*
X116750800Y-87965800D01*
D22*
X108730000Y-95300000D02*
X107475000Y-95300000D01*
D24*
X107475000Y-92760000D02*
X105251000Y-92760000D01*
X105251000Y-92760000D02*
X104889000Y-93122000D01*
X104889000Y-93122000D02*
X104889000Y-95027000D01*
X104889000Y-95027000D02*
X105162000Y-95300000D01*
X105162000Y-95300000D02*
X107475000Y-95300000D01*
X118775000Y-96000000D02*
X121000000Y-96000000D01*
X118732000Y-96043000D02*
X118775000Y-96000000D01*
X121000000Y-90000000D02*
X121000000Y-93000000D01*
D25*
X133000000Y-131000000D02*
X138000000Y-131000000D01*
X129000000Y-131000000D02*
X120540000Y-131000000D01*
X121000000Y-109000000D02*
X121000000Y-112000000D01*
X123558000Y-108997000D02*
X123558000Y-105949000D01*
X121000000Y-109000000D02*
X121000000Y-106000000D01*
X118000000Y-109000000D02*
X118000000Y-106000000D01*
X121003000Y-108997000D02*
X121000000Y-109000000D01*
X128003000Y-108997000D02*
X121003000Y-108997000D01*
X140000000Y-96000000D02*
X140000000Y-103595000D01*
X140000000Y-103595000D02*
X140703000Y-104298000D01*
D24*
X139000000Y-96000000D02*
X140000000Y-96000000D01*
X136000000Y-96000000D02*
X139000000Y-96000000D01*
X136000000Y-90000000D02*
X136000000Y-93000000D01*
X132000000Y-93000000D02*
X132000000Y-90000000D01*
X129000000Y-96000000D02*
X132000000Y-96000000D01*
X129000000Y-90000000D02*
X129000000Y-93000000D01*
X125000000Y-93000000D02*
X125000000Y-90000000D01*
X121000000Y-96000000D02*
X125000000Y-96000000D01*
D25*
X140000000Y-93000000D02*
X140000000Y-90000000D01*
D22*
X131813000Y-112934000D02*
X131813000Y-107473000D01*
D24*
X120510000Y-114331000D02*
X120510000Y-117760000D01*
X109257800Y-114331000D02*
X110731000Y-114331000D01*
X128003000Y-103917000D02*
X124142200Y-103917000D01*
X124142200Y-103917000D02*
X124116800Y-103891600D01*
D25*
X127749000Y-104171000D02*
X128003000Y-103917000D01*
D22*
X147815000Y-123475000D02*
X140449000Y-123475000D01*
X140449000Y-123475000D02*
X139052000Y-122078000D01*
X147815000Y-120935000D02*
X140449000Y-120935000D01*
D24*
X129781000Y-102647000D02*
X124066000Y-102647000D01*
X131051000Y-103917000D02*
X129781000Y-102647000D01*
X135623000Y-103917000D02*
X131051000Y-103917000D01*
X109969000Y-106761000D02*
X108730000Y-108000000D01*
X109969000Y-101681800D02*
X109969000Y-106761000D01*
X110019800Y-101631000D02*
X109969000Y-101681800D01*
X108730000Y-108000000D02*
X107475000Y-108000000D01*
X128003000Y-101377000D02*
X124955000Y-101377000D01*
X124955000Y-101377000D02*
X124066000Y-100488000D01*
X126098000Y-115728000D02*
X126098000Y-113035600D01*
X125336000Y-116490000D02*
X126098000Y-115728000D01*
X123304000Y-116490000D02*
X125336000Y-116490000D01*
X130416000Y-107727000D02*
X126225000Y-107727000D01*
X135623000Y-119157000D02*
X131559000Y-119157000D01*
X130797000Y-108108000D02*
X130416000Y-107727000D01*
X130797000Y-113061000D02*
X130797000Y-108108000D01*
X130797000Y-118395000D02*
X130797000Y-117379000D01*
X131559000Y-119157000D02*
X130797000Y-118395000D01*
X126225000Y-107727000D02*
X124955000Y-106457000D01*
X124955000Y-106457000D02*
X124955000Y-105441000D01*
X124955000Y-105441000D02*
X124320000Y-104806000D01*
X124320000Y-104806000D02*
X123431000Y-104806000D01*
X123431000Y-104806000D02*
X123050000Y-104425000D01*
X123050000Y-104425000D02*
X123050000Y-97186000D01*
X120510000Y-100488000D02*
X120510000Y-102901000D01*
D26*
G36*
X143497954Y-83802046D02*
X143728295Y-83955954D01*
X144000000Y-84010000D01*
X149963500Y-84010000D01*
X149735628Y-84104155D01*
X149106364Y-84732321D01*
X148765389Y-85553481D01*
X148764613Y-86442619D01*
X149104155Y-87264372D01*
X149292015Y-87452560D01*
X148250000Y-87452560D01*
X148014683Y-87496838D01*
X147798559Y-87635910D01*
X147653569Y-87848110D01*
X147602560Y-88100000D01*
X147602560Y-90900000D01*
X147646838Y-91135317D01*
X147785910Y-91351441D01*
X147998110Y-91496431D01*
X148250000Y-91547440D01*
X148677560Y-91547440D01*
X148677560Y-92675000D01*
X148721838Y-92910317D01*
X148860910Y-93126441D01*
X148965177Y-93197683D01*
X148764054Y-93498685D01*
X148664336Y-94000000D01*
X148764054Y-94501315D01*
X149048026Y-94926310D01*
X149158311Y-95000000D01*
X149048026Y-95073690D01*
X148764054Y-95498685D01*
X148664336Y-96000000D01*
X148754356Y-96452560D01*
X148250000Y-96452560D01*
X148014683Y-96496838D01*
X147798559Y-96635910D01*
X147653569Y-96848110D01*
X147602560Y-97100000D01*
X147602560Y-99900000D01*
X147646838Y-100135317D01*
X147785910Y-100351441D01*
X147998110Y-100496431D01*
X148250000Y-100547440D01*
X151750000Y-100547440D01*
X151985317Y-100503162D01*
X152201441Y-100364090D01*
X152346431Y-100151890D01*
X152397440Y-99900000D01*
X152397440Y-97100000D01*
X152353162Y-96864683D01*
X152214090Y-96648559D01*
X152001890Y-96503569D01*
X151750000Y-96452560D01*
X151245644Y-96452560D01*
X151335664Y-96000000D01*
X151235946Y-95498685D01*
X150951974Y-95073690D01*
X150841689Y-95000000D01*
X150951974Y-94926310D01*
X151235946Y-94501315D01*
X151335664Y-94000000D01*
X151235946Y-93498685D01*
X151034992Y-93197936D01*
X151126441Y-93139090D01*
X151271431Y-92926890D01*
X151322440Y-92675000D01*
X151322440Y-91547440D01*
X151750000Y-91547440D01*
X151985317Y-91503162D01*
X152201441Y-91364090D01*
X152346431Y-91151890D01*
X152397440Y-90900000D01*
X152397440Y-88100000D01*
X152353162Y-87864683D01*
X152330644Y-87829689D01*
X152893636Y-87267679D01*
X152990000Y-87035608D01*
X152990000Y-90000000D01*
X153044046Y-90271705D01*
X153197954Y-90502046D01*
X153290000Y-90594092D01*
X153290000Y-99205908D01*
X152497954Y-99997954D01*
X152344046Y-100228295D01*
X152290000Y-100500000D01*
X152290000Y-115500000D01*
X152344046Y-115771705D01*
X152497954Y-116002046D01*
X153290000Y-116794092D01*
X153290000Y-125405908D01*
X153197954Y-125497954D01*
X153044046Y-125728295D01*
X152990000Y-126000000D01*
X152990000Y-128963500D01*
X152895845Y-128735628D01*
X152267679Y-128106364D01*
X151446519Y-127765389D01*
X150557381Y-127764613D01*
X149735628Y-128104155D01*
X149106364Y-128732321D01*
X148765389Y-129553481D01*
X148764613Y-130442619D01*
X149104155Y-131264372D01*
X149732321Y-131893636D01*
X149964392Y-131990000D01*
X144000000Y-131990000D01*
X143728295Y-132044046D01*
X143497954Y-132197954D01*
X143405908Y-132290000D01*
X121262608Y-132290000D01*
X121306924Y-132271645D01*
X121735183Y-131881358D01*
X121981486Y-131356892D01*
X121860819Y-131127000D01*
X120667000Y-131127000D01*
X120667000Y-131147000D01*
X120413000Y-131147000D01*
X120413000Y-131127000D01*
X120393000Y-131127000D01*
X120393000Y-130873000D01*
X120413000Y-130873000D01*
X120413000Y-129679845D01*
X120667000Y-129679845D01*
X120667000Y-130873000D01*
X121860819Y-130873000D01*
X121981486Y-130643108D01*
X121840829Y-130343599D01*
X145264699Y-130343599D01*
X145528281Y-130981515D01*
X146015918Y-131470004D01*
X146653373Y-131734699D01*
X147343599Y-131735301D01*
X147981515Y-131471719D01*
X148470004Y-130984082D01*
X148734699Y-130346627D01*
X148735301Y-129656401D01*
X148471719Y-129018485D01*
X147984082Y-128529996D01*
X147346627Y-128265301D01*
X146656401Y-128264699D01*
X146018485Y-128528281D01*
X145529996Y-129015918D01*
X145265301Y-129653373D01*
X145264699Y-130343599D01*
X121840829Y-130343599D01*
X121735183Y-130118642D01*
X121306924Y-129728355D01*
X120896890Y-129558524D01*
X120667000Y-129679845D01*
X120413000Y-129679845D01*
X120183110Y-129558524D01*
X119773076Y-129728355D01*
X119470063Y-130004501D01*
X119453162Y-129914683D01*
X119314090Y-129698559D01*
X119101890Y-129553569D01*
X118850000Y-129502560D01*
X117150000Y-129502560D01*
X116914683Y-129546838D01*
X116698559Y-129685910D01*
X116553569Y-129898110D01*
X116502560Y-130150000D01*
X116502560Y-131850000D01*
X116546838Y-132085317D01*
X116678548Y-132290000D01*
X114594092Y-132290000D01*
X114502046Y-132197954D01*
X114271705Y-132044046D01*
X114000000Y-131990000D01*
X108036500Y-131990000D01*
X108264372Y-131895845D01*
X108893636Y-131267679D01*
X109234611Y-130446519D01*
X109234700Y-130343599D01*
X109264699Y-130343599D01*
X109528281Y-130981515D01*
X110015918Y-131470004D01*
X110653373Y-131734699D01*
X111343599Y-131735301D01*
X111981515Y-131471719D01*
X112470004Y-130984082D01*
X112734699Y-130346627D01*
X112735301Y-129656401D01*
X112471719Y-129018485D01*
X111984082Y-128529996D01*
X111346627Y-128265301D01*
X110656401Y-128264699D01*
X110018485Y-128528281D01*
X109529996Y-129015918D01*
X109265301Y-129653373D01*
X109264699Y-130343599D01*
X109234700Y-130343599D01*
X109235387Y-129557381D01*
X108895845Y-128735628D01*
X108267679Y-128106364D01*
X107446519Y-127765389D01*
X106557381Y-127764613D01*
X105735628Y-128104155D01*
X105106364Y-128732321D01*
X105010000Y-128964392D01*
X105010000Y-126000000D01*
X104955954Y-125728295D01*
X104802046Y-125497954D01*
X104710000Y-125405908D01*
X104710000Y-97340000D01*
X105252560Y-97340000D01*
X105252560Y-98340000D01*
X105296838Y-98575317D01*
X105435910Y-98791441D01*
X105648110Y-98936431D01*
X105900000Y-98987440D01*
X107777162Y-98987440D01*
X107887717Y-99098188D01*
X107915557Y-99109748D01*
X107889914Y-99120344D01*
X107777502Y-99232560D01*
X105900000Y-99232560D01*
X105664683Y-99276838D01*
X105448559Y-99415910D01*
X105303569Y-99628110D01*
X105252560Y-99880000D01*
X105252560Y-100880000D01*
X105296838Y-101115317D01*
X105435910Y-101331441D01*
X105648110Y-101476431D01*
X105900000Y-101527440D01*
X107777162Y-101527440D01*
X107887717Y-101638188D01*
X107915557Y-101649748D01*
X107889914Y-101660344D01*
X107777502Y-101772560D01*
X105900000Y-101772560D01*
X105664683Y-101816838D01*
X105448559Y-101955910D01*
X105303569Y-102168110D01*
X105252560Y-102420000D01*
X105252560Y-103420000D01*
X105296838Y-103655317D01*
X105435910Y-103871441D01*
X105648110Y-104016431D01*
X105900000Y-104067440D01*
X107777162Y-104067440D01*
X107887717Y-104178188D01*
X107915557Y-104189748D01*
X107889914Y-104200344D01*
X107777502Y-104312560D01*
X105900000Y-104312560D01*
X105664683Y-104356838D01*
X105448559Y-104495910D01*
X105303569Y-104708110D01*
X105252560Y-104960000D01*
X105252560Y-105960000D01*
X105296838Y-106195317D01*
X105435910Y-106411441D01*
X105648110Y-106556431D01*
X105900000Y-106607440D01*
X107777162Y-106607440D01*
X107887717Y-106718188D01*
X107915557Y-106729748D01*
X107889914Y-106740344D01*
X107777502Y-106852560D01*
X105900000Y-106852560D01*
X105664683Y-106896838D01*
X105448559Y-107035910D01*
X105303569Y-107248110D01*
X105252560Y-107500000D01*
X105252560Y-108500000D01*
X105296838Y-108735317D01*
X105435910Y-108951441D01*
X105648110Y-109096431D01*
X105900000Y-109147440D01*
X107777162Y-109147440D01*
X107887717Y-109258188D01*
X107915557Y-109269748D01*
X107889914Y-109280344D01*
X107777502Y-109392560D01*
X105900000Y-109392560D01*
X105664683Y-109436838D01*
X105448559Y-109575910D01*
X105303569Y-109788110D01*
X105252560Y-110040000D01*
X105252560Y-111040000D01*
X105296838Y-111275317D01*
X105435910Y-111491441D01*
X105648110Y-111636431D01*
X105900000Y-111687440D01*
X107777162Y-111687440D01*
X107887717Y-111798188D01*
X107915557Y-111809748D01*
X107889914Y-111820344D01*
X107777502Y-111932560D01*
X105900000Y-111932560D01*
X105664683Y-111976838D01*
X105448559Y-112115910D01*
X105303569Y-112328110D01*
X105252560Y-112580000D01*
X105252560Y-113580000D01*
X105296838Y-113815317D01*
X105435910Y-114031441D01*
X105648110Y-114176431D01*
X105900000Y-114227440D01*
X107777162Y-114227440D01*
X107887717Y-114338188D01*
X107915557Y-114349748D01*
X107889914Y-114360344D01*
X107777502Y-114472560D01*
X105900000Y-114472560D01*
X105664683Y-114516838D01*
X105448559Y-114655910D01*
X105303569Y-114868110D01*
X105252560Y-115120000D01*
X105252560Y-116120000D01*
X105296838Y-116355317D01*
X105435910Y-116571441D01*
X105648110Y-116716431D01*
X105900000Y-116767440D01*
X107777162Y-116767440D01*
X107887717Y-116878188D01*
X107915557Y-116889748D01*
X107889914Y-116900344D01*
X107777502Y-117012560D01*
X105900000Y-117012560D01*
X105664683Y-117056838D01*
X105448559Y-117195910D01*
X105303569Y-117408110D01*
X105252560Y-117660000D01*
X105252560Y-118660000D01*
X105296838Y-118895317D01*
X105435910Y-119111441D01*
X105648110Y-119256431D01*
X105900000Y-119307440D01*
X107777162Y-119307440D01*
X107887717Y-119418188D01*
X107915557Y-119429748D01*
X107889914Y-119440344D01*
X107777502Y-119552560D01*
X105900000Y-119552560D01*
X105664683Y-119596838D01*
X105448559Y-119735910D01*
X105303569Y-119948110D01*
X105252560Y-120200000D01*
X105252560Y-121200000D01*
X105296838Y-121435317D01*
X105435910Y-121651441D01*
X105648110Y-121796431D01*
X105900000Y-121847440D01*
X107777162Y-121847440D01*
X107887717Y-121958188D01*
X107915557Y-121969748D01*
X107889914Y-121980344D01*
X107777502Y-122092560D01*
X105900000Y-122092560D01*
X105664683Y-122136838D01*
X105448559Y-122275910D01*
X105303569Y-122488110D01*
X105252560Y-122740000D01*
X105252560Y-123740000D01*
X105296838Y-123975317D01*
X105435910Y-124191441D01*
X105648110Y-124336431D01*
X105900000Y-124387440D01*
X107777162Y-124387440D01*
X107887717Y-124498188D01*
X107915557Y-124509748D01*
X107889914Y-124520344D01*
X107777502Y-124632560D01*
X105900000Y-124632560D01*
X105664683Y-124676838D01*
X105448559Y-124815910D01*
X105303569Y-125028110D01*
X105252560Y-125280000D01*
X105252560Y-126280000D01*
X105296838Y-126515317D01*
X105435910Y-126731441D01*
X105648110Y-126876431D01*
X105900000Y-126927440D01*
X107777162Y-126927440D01*
X107887717Y-127038188D01*
X108433319Y-127264742D01*
X109024089Y-127265257D01*
X109570086Y-127039656D01*
X109988188Y-126622283D01*
X109999748Y-126594443D01*
X110010344Y-126620086D01*
X110427717Y-127038188D01*
X110973319Y-127264742D01*
X111564089Y-127265257D01*
X112110086Y-127039656D01*
X112222498Y-126927440D01*
X114130000Y-126927440D01*
X114365317Y-126883162D01*
X114581441Y-126744090D01*
X114726431Y-126531890D01*
X114777440Y-126280000D01*
X114777440Y-125280000D01*
X114733162Y-125044683D01*
X114603323Y-124842907D01*
X126137000Y-124842907D01*
X126137000Y-124901093D01*
X126250039Y-125469378D01*
X126571946Y-125951147D01*
X127053715Y-126273054D01*
X127622000Y-126386093D01*
X128190285Y-126273054D01*
X128672054Y-125951147D01*
X128699850Y-125909548D01*
X128708838Y-125957317D01*
X128847910Y-126173441D01*
X129060110Y-126318431D01*
X129312000Y-126369440D01*
X131012000Y-126369440D01*
X131247317Y-126325162D01*
X131463441Y-126186090D01*
X131608431Y-125973890D01*
X131659440Y-125722000D01*
X131659440Y-124022000D01*
X131615162Y-123786683D01*
X131476090Y-123570559D01*
X131263890Y-123425569D01*
X131012000Y-123374560D01*
X129312000Y-123374560D01*
X129076683Y-123418838D01*
X128860559Y-123557910D01*
X128715569Y-123770110D01*
X128701914Y-123837541D01*
X128672054Y-123792853D01*
X128190285Y-123470946D01*
X127622000Y-123357907D01*
X127053715Y-123470946D01*
X126571946Y-123792853D01*
X126250039Y-124274622D01*
X126137000Y-124842907D01*
X114603323Y-124842907D01*
X114594090Y-124828559D01*
X114381890Y-124683569D01*
X114130000Y-124632560D01*
X112222838Y-124632560D01*
X112112283Y-124521812D01*
X112084443Y-124510252D01*
X112110086Y-124499656D01*
X112222498Y-124387440D01*
X114130000Y-124387440D01*
X114365317Y-124343162D01*
X114581441Y-124204090D01*
X114726431Y-123991890D01*
X114777440Y-123740000D01*
X114777440Y-122740000D01*
X114733162Y-122504683D01*
X114594090Y-122288559D01*
X114381890Y-122143569D01*
X114130000Y-122092560D01*
X112222838Y-122092560D01*
X112208304Y-122078000D01*
X137917000Y-122078000D01*
X138003397Y-122512345D01*
X138249434Y-122880566D01*
X139646434Y-124277566D01*
X140014654Y-124523603D01*
X140449000Y-124610000D01*
X146862984Y-124610000D01*
X147217622Y-124846961D01*
X147785907Y-124960000D01*
X147844093Y-124960000D01*
X148412378Y-124846961D01*
X148894147Y-124525054D01*
X149216054Y-124043285D01*
X149329093Y-123475000D01*
X149216054Y-122906715D01*
X148894147Y-122424946D01*
X148852548Y-122397150D01*
X148900317Y-122388162D01*
X149116441Y-122249090D01*
X149261431Y-122036890D01*
X149312440Y-121785000D01*
X149312440Y-120085000D01*
X149268162Y-119849683D01*
X149129090Y-119633559D01*
X148916890Y-119488569D01*
X148665000Y-119437560D01*
X146965000Y-119437560D01*
X146729683Y-119481838D01*
X146513559Y-119620910D01*
X146391192Y-119800000D01*
X140449000Y-119800000D01*
X140014654Y-119886397D01*
X139646434Y-120132434D01*
X139400397Y-120500654D01*
X139314000Y-120935000D01*
X139326450Y-120997592D01*
X139052000Y-120943000D01*
X138617655Y-121029397D01*
X138249434Y-121275434D01*
X138003397Y-121643655D01*
X137917000Y-122078000D01*
X112208304Y-122078000D01*
X112112283Y-121981812D01*
X112084443Y-121970252D01*
X112110086Y-121959656D01*
X112222498Y-121847440D01*
X114130000Y-121847440D01*
X114365317Y-121803162D01*
X114581441Y-121664090D01*
X114726431Y-121451890D01*
X114777440Y-121200000D01*
X114777440Y-120200000D01*
X114733162Y-119964683D01*
X114594090Y-119748559D01*
X114381890Y-119603569D01*
X114130000Y-119552560D01*
X112222838Y-119552560D01*
X112112283Y-119441812D01*
X112084443Y-119430252D01*
X112110086Y-119419656D01*
X112222498Y-119307440D01*
X114130000Y-119307440D01*
X114365317Y-119263162D01*
X114581441Y-119124090D01*
X114726431Y-118911890D01*
X114777440Y-118660000D01*
X114777440Y-117660000D01*
X114733162Y-117424683D01*
X114594090Y-117208559D01*
X114381890Y-117063569D01*
X114130000Y-117012560D01*
X112222838Y-117012560D01*
X112112283Y-116901812D01*
X112084443Y-116890252D01*
X112110086Y-116879656D01*
X112222498Y-116767440D01*
X114130000Y-116767440D01*
X114365317Y-116723162D01*
X114581441Y-116584090D01*
X114726431Y-116371890D01*
X114777440Y-116120000D01*
X114777440Y-115120000D01*
X114733162Y-114884683D01*
X114594090Y-114668559D01*
X114381890Y-114523569D01*
X114345338Y-114516167D01*
X119574838Y-114516167D01*
X119675000Y-114758578D01*
X119675000Y-117332766D01*
X119575162Y-117573201D01*
X119574838Y-117945167D01*
X119716883Y-118288943D01*
X119979673Y-118552192D01*
X120323201Y-118694838D01*
X120695167Y-118695162D01*
X121038943Y-118553117D01*
X121302192Y-118290327D01*
X121444838Y-117946799D01*
X121445162Y-117574833D01*
X121345000Y-117332422D01*
X121345000Y-116675167D01*
X122368838Y-116675167D01*
X122510883Y-117018943D01*
X122773673Y-117282192D01*
X123117201Y-117424838D01*
X123489167Y-117425162D01*
X123731578Y-117325000D01*
X125336000Y-117325000D01*
X125655541Y-117261439D01*
X125926434Y-117080434D01*
X126174825Y-116832043D01*
X126241283Y-117166151D01*
X126552352Y-117631698D01*
X126934438Y-117887000D01*
X126552352Y-118142302D01*
X126241283Y-118607849D01*
X126132050Y-119157000D01*
X126241283Y-119706151D01*
X126552352Y-120171698D01*
X127017899Y-120482767D01*
X127567050Y-120592000D01*
X128438950Y-120592000D01*
X128988101Y-120482767D01*
X129453648Y-120171698D01*
X129764717Y-119706151D01*
X129873950Y-119157000D01*
X129764717Y-118607849D01*
X129453648Y-118142302D01*
X129071562Y-117887000D01*
X129453648Y-117631698D01*
X129498770Y-117564167D01*
X129861838Y-117564167D01*
X129962000Y-117806578D01*
X129962000Y-118395000D01*
X130025561Y-118714541D01*
X130206566Y-118985434D01*
X130968566Y-119747434D01*
X131239460Y-119928440D01*
X131559000Y-119992000D01*
X134052281Y-119992000D01*
X134172352Y-120171698D01*
X134637899Y-120482767D01*
X135187050Y-120592000D01*
X136058950Y-120592000D01*
X136608101Y-120482767D01*
X137073648Y-120171698D01*
X137384717Y-119706151D01*
X137493950Y-119157000D01*
X137384717Y-118607849D01*
X137073648Y-118142302D01*
X136691562Y-117887000D01*
X137073648Y-117631698D01*
X137384717Y-117166151D01*
X137493950Y-116617000D01*
X137384717Y-116067849D01*
X137073648Y-115602302D01*
X136691562Y-115347000D01*
X136881630Y-115220000D01*
X146300907Y-115220000D01*
X146413946Y-115788285D01*
X146735853Y-116270054D01*
X147217622Y-116591961D01*
X147785907Y-116705000D01*
X147844093Y-116705000D01*
X148412378Y-116591961D01*
X148894147Y-116270054D01*
X149216054Y-115788285D01*
X149329093Y-115220000D01*
X149216054Y-114651715D01*
X148894147Y-114169946D01*
X148850223Y-114140597D01*
X149024698Y-114068327D01*
X149203327Y-113889699D01*
X149300000Y-113656310D01*
X149300000Y-112965750D01*
X149141250Y-112807000D01*
X147942000Y-112807000D01*
X147942000Y-112827000D01*
X147688000Y-112827000D01*
X147688000Y-112807000D01*
X146488750Y-112807000D01*
X146330000Y-112965750D01*
X146330000Y-113656310D01*
X146426673Y-113889699D01*
X146605302Y-114068327D01*
X146779777Y-114140597D01*
X146735853Y-114169946D01*
X146413946Y-114651715D01*
X146300907Y-115220000D01*
X136881630Y-115220000D01*
X137073648Y-115091698D01*
X137384717Y-114626151D01*
X137493950Y-114077000D01*
X137384717Y-113527849D01*
X137073648Y-113062302D01*
X136695293Y-112809493D01*
X137127500Y-112461896D01*
X137397367Y-111968819D01*
X137414904Y-111886039D01*
X137314721Y-111703690D01*
X146330000Y-111703690D01*
X146330000Y-112394250D01*
X146488750Y-112553000D01*
X147688000Y-112553000D01*
X147688000Y-111353750D01*
X147942000Y-111353750D01*
X147942000Y-112553000D01*
X149141250Y-112553000D01*
X149300000Y-112394250D01*
X149300000Y-111703690D01*
X149203327Y-111470301D01*
X149024698Y-111291673D01*
X148791309Y-111195000D01*
X148100750Y-111195000D01*
X147942000Y-111353750D01*
X147688000Y-111353750D01*
X147529250Y-111195000D01*
X146838691Y-111195000D01*
X146605302Y-111291673D01*
X146426673Y-111470301D01*
X146330000Y-111703690D01*
X137314721Y-111703690D01*
X137292915Y-111664000D01*
X135750000Y-111664000D01*
X135750000Y-111684000D01*
X135496000Y-111684000D01*
X135496000Y-111664000D01*
X133953085Y-111664000D01*
X133831096Y-111886039D01*
X133848633Y-111968819D01*
X134118500Y-112461896D01*
X134550707Y-112809493D01*
X134172352Y-113062302D01*
X133861283Y-113527849D01*
X133752050Y-114077000D01*
X133861283Y-114626151D01*
X134172352Y-115091698D01*
X134554438Y-115347000D01*
X134172352Y-115602302D01*
X133861283Y-116067849D01*
X133752050Y-116617000D01*
X133861283Y-117166151D01*
X134172352Y-117631698D01*
X134554438Y-117887000D01*
X134172352Y-118142302D01*
X134052281Y-118322000D01*
X131904868Y-118322000D01*
X131632000Y-118049132D01*
X131632000Y-117806234D01*
X131731838Y-117565799D01*
X131732162Y-117193833D01*
X131590117Y-116850057D01*
X131327327Y-116586808D01*
X130983799Y-116444162D01*
X130611833Y-116443838D01*
X130268057Y-116585883D01*
X130004808Y-116848673D01*
X129862162Y-117192201D01*
X129861838Y-117564167D01*
X129498770Y-117564167D01*
X129764717Y-117166151D01*
X129873950Y-116617000D01*
X129764717Y-116067849D01*
X129453648Y-115602302D01*
X129071562Y-115347000D01*
X129453648Y-115091698D01*
X129764717Y-114626151D01*
X129873950Y-114077000D01*
X129764717Y-113527849D01*
X129453648Y-113062302D01*
X129075293Y-112809493D01*
X129507500Y-112461896D01*
X129777367Y-111968819D01*
X129794904Y-111886039D01*
X129672915Y-111664000D01*
X128130000Y-111664000D01*
X128130000Y-111684000D01*
X127876000Y-111684000D01*
X127876000Y-111664000D01*
X126333085Y-111664000D01*
X126211096Y-111886039D01*
X126228633Y-111968819D01*
X126305567Y-112109386D01*
X126284799Y-112100762D01*
X125912833Y-112100438D01*
X125569057Y-112242483D01*
X125305808Y-112505273D01*
X125163162Y-112848801D01*
X125162838Y-113220767D01*
X125263000Y-113463178D01*
X125263000Y-115382132D01*
X124990132Y-115655000D01*
X123731234Y-115655000D01*
X123490799Y-115555162D01*
X123118833Y-115554838D01*
X122775057Y-115696883D01*
X122511808Y-115959673D01*
X122369162Y-116303201D01*
X122368838Y-116675167D01*
X121345000Y-116675167D01*
X121345000Y-114758234D01*
X121444838Y-114517799D01*
X121445162Y-114145833D01*
X121303117Y-113802057D01*
X121040327Y-113538808D01*
X120696799Y-113396162D01*
X120324833Y-113395838D01*
X119981057Y-113537883D01*
X119717808Y-113800673D01*
X119575162Y-114144201D01*
X119574838Y-114516167D01*
X114345338Y-114516167D01*
X114130000Y-114472560D01*
X112222838Y-114472560D01*
X112112283Y-114361812D01*
X112084443Y-114350252D01*
X112110086Y-114339656D01*
X112222498Y-114227440D01*
X114130000Y-114227440D01*
X114365317Y-114183162D01*
X114581441Y-114044090D01*
X114726431Y-113831890D01*
X114777440Y-113580000D01*
X114777440Y-112580000D01*
X114733162Y-112344683D01*
X114594090Y-112128559D01*
X114381890Y-111983569D01*
X114130000Y-111932560D01*
X112222838Y-111932560D01*
X112112283Y-111821812D01*
X112084443Y-111810252D01*
X112110086Y-111799656D01*
X112222498Y-111687440D01*
X114130000Y-111687440D01*
X114365317Y-111643162D01*
X114581441Y-111504090D01*
X114726431Y-111291890D01*
X114777440Y-111040000D01*
X114777440Y-110040000D01*
X114733162Y-109804683D01*
X114594090Y-109588559D01*
X114381890Y-109443569D01*
X114130000Y-109392560D01*
X112222838Y-109392560D01*
X112176399Y-109346039D01*
X126211096Y-109346039D01*
X126228633Y-109428819D01*
X126498500Y-109921896D01*
X126927607Y-110267000D01*
X126498500Y-110612104D01*
X126228633Y-111105181D01*
X126211096Y-111187961D01*
X126333085Y-111410000D01*
X127876000Y-111410000D01*
X127876000Y-109124000D01*
X128130000Y-109124000D01*
X128130000Y-111410000D01*
X129672915Y-111410000D01*
X129794904Y-111187961D01*
X129777367Y-111105181D01*
X129507500Y-110612104D01*
X129078393Y-110267000D01*
X129507500Y-109921896D01*
X129777367Y-109428819D01*
X129794904Y-109346039D01*
X129672915Y-109124000D01*
X128130000Y-109124000D01*
X127876000Y-109124000D01*
X126333085Y-109124000D01*
X126211096Y-109346039D01*
X112176399Y-109346039D01*
X112112283Y-109281812D01*
X112084443Y-109270252D01*
X112110086Y-109259656D01*
X112222498Y-109147440D01*
X114130000Y-109147440D01*
X114365317Y-109103162D01*
X114581441Y-108964090D01*
X114726431Y-108751890D01*
X114777440Y-108500000D01*
X114777440Y-107500000D01*
X114733162Y-107264683D01*
X114594090Y-107048559D01*
X114381890Y-106903569D01*
X114130000Y-106852560D01*
X112222838Y-106852560D01*
X112112283Y-106741812D01*
X112084443Y-106730252D01*
X112110086Y-106719656D01*
X112222498Y-106607440D01*
X114130000Y-106607440D01*
X114365317Y-106563162D01*
X114581441Y-106424090D01*
X114726431Y-106211890D01*
X114777440Y-105960000D01*
X114777440Y-104960000D01*
X114733162Y-104724683D01*
X114594090Y-104508559D01*
X114381890Y-104363569D01*
X114130000Y-104312560D01*
X112222838Y-104312560D01*
X112112283Y-104201812D01*
X112084443Y-104190252D01*
X112110086Y-104179656D01*
X112222498Y-104067440D01*
X114130000Y-104067440D01*
X114365317Y-104023162D01*
X114581441Y-103884090D01*
X114726431Y-103671890D01*
X114777440Y-103420000D01*
X114777440Y-102420000D01*
X114733162Y-102184683D01*
X114594090Y-101968559D01*
X114381890Y-101823569D01*
X114130000Y-101772560D01*
X112222838Y-101772560D01*
X112112283Y-101661812D01*
X112084443Y-101650252D01*
X112110086Y-101639656D01*
X112222498Y-101527440D01*
X114130000Y-101527440D01*
X114365317Y-101483162D01*
X114581441Y-101344090D01*
X114726431Y-101131890D01*
X114777440Y-100880000D01*
X114777440Y-100673167D01*
X119574838Y-100673167D01*
X119675000Y-100915578D01*
X119675000Y-102473766D01*
X119575162Y-102714201D01*
X119574838Y-103086167D01*
X119716883Y-103429943D01*
X119979673Y-103693192D01*
X120323201Y-103835838D01*
X120695167Y-103836162D01*
X121038943Y-103694117D01*
X121302192Y-103431327D01*
X121444838Y-103087799D01*
X121445162Y-102715833D01*
X121345000Y-102473422D01*
X121345000Y-100915234D01*
X121444838Y-100674799D01*
X121445162Y-100302833D01*
X121303117Y-99959057D01*
X121040327Y-99695808D01*
X120696799Y-99553162D01*
X120324833Y-99552838D01*
X119981057Y-99694883D01*
X119717808Y-99957673D01*
X119575162Y-100301201D01*
X119574838Y-100673167D01*
X114777440Y-100673167D01*
X114777440Y-99880000D01*
X114733162Y-99644683D01*
X114594090Y-99428559D01*
X114381890Y-99283569D01*
X114130000Y-99232560D01*
X112222838Y-99232560D01*
X112112283Y-99121812D01*
X112084443Y-99110252D01*
X112110086Y-99099656D01*
X112222498Y-98987440D01*
X114130000Y-98987440D01*
X114365317Y-98943162D01*
X114581441Y-98804090D01*
X114726431Y-98591890D01*
X114777440Y-98340000D01*
X114777440Y-97371167D01*
X122114838Y-97371167D01*
X122215000Y-97613578D01*
X122215000Y-104425000D01*
X122278561Y-104744541D01*
X122422526Y-104960000D01*
X122459566Y-105015434D01*
X122840566Y-105396434D01*
X123111459Y-105577439D01*
X123431000Y-105641000D01*
X123974132Y-105641000D01*
X124120000Y-105786868D01*
X124120000Y-106457000D01*
X124183561Y-106776541D01*
X124309606Y-106965180D01*
X124364566Y-107047434D01*
X125634566Y-108317434D01*
X125905459Y-108498439D01*
X126225000Y-108562000D01*
X126230374Y-108562000D01*
X126228633Y-108565181D01*
X126211096Y-108647961D01*
X126333085Y-108870000D01*
X127876000Y-108870000D01*
X127876000Y-108850000D01*
X128130000Y-108850000D01*
X128130000Y-108870000D01*
X129672915Y-108870000D01*
X129794904Y-108647961D01*
X129777367Y-108565181D01*
X129775626Y-108562000D01*
X129962000Y-108562000D01*
X129962000Y-112633766D01*
X129862162Y-112874201D01*
X129861838Y-113246167D01*
X130003883Y-113589943D01*
X130266673Y-113853192D01*
X130610201Y-113995838D01*
X130982167Y-113996162D01*
X131239695Y-113889754D01*
X131378654Y-113982603D01*
X131813000Y-114069000D01*
X132247346Y-113982603D01*
X132615566Y-113736566D01*
X132861603Y-113368346D01*
X132948000Y-112934000D01*
X132948000Y-109346039D01*
X133831096Y-109346039D01*
X133848633Y-109428819D01*
X134118500Y-109921896D01*
X134547607Y-110267000D01*
X134118500Y-110612104D01*
X133848633Y-111105181D01*
X133831096Y-111187961D01*
X133953085Y-111410000D01*
X135496000Y-111410000D01*
X135496000Y-109124000D01*
X135750000Y-109124000D01*
X135750000Y-111410000D01*
X137292915Y-111410000D01*
X137414904Y-111187961D01*
X137397367Y-111105181D01*
X137127500Y-110612104D01*
X136698393Y-110267000D01*
X137127500Y-109921896D01*
X137397367Y-109428819D01*
X137414904Y-109346039D01*
X137292915Y-109124000D01*
X135750000Y-109124000D01*
X135496000Y-109124000D01*
X133953085Y-109124000D01*
X133831096Y-109346039D01*
X132948000Y-109346039D01*
X132948000Y-107473000D01*
X132861603Y-107038654D01*
X132615566Y-106670434D01*
X132247346Y-106424397D01*
X131813000Y-106338000D01*
X131378654Y-106424397D01*
X131010434Y-106670434D01*
X130793874Y-106994538D01*
X130735541Y-106955561D01*
X130416000Y-106892000D01*
X129787423Y-106892000D01*
X129873950Y-106457000D01*
X129764717Y-105907849D01*
X129453648Y-105442302D01*
X129071562Y-105187000D01*
X129453648Y-104931698D01*
X129764717Y-104466151D01*
X129873317Y-103920185D01*
X130460566Y-104507434D01*
X130731459Y-104688439D01*
X131051000Y-104752000D01*
X134052281Y-104752000D01*
X134172352Y-104931698D01*
X134554438Y-105187000D01*
X134172352Y-105442302D01*
X133861283Y-105907849D01*
X133752050Y-106457000D01*
X133861283Y-107006151D01*
X134172352Y-107471698D01*
X134550707Y-107724507D01*
X134118500Y-108072104D01*
X133848633Y-108565181D01*
X133831096Y-108647961D01*
X133953085Y-108870000D01*
X135496000Y-108870000D01*
X135496000Y-108850000D01*
X135750000Y-108850000D01*
X135750000Y-108870000D01*
X137292915Y-108870000D01*
X137414904Y-108647961D01*
X137397367Y-108565181D01*
X137127500Y-108072104D01*
X136695293Y-107724507D01*
X137073648Y-107471698D01*
X137384717Y-107006151D01*
X137392902Y-106965000D01*
X146300907Y-106965000D01*
X146413946Y-107533285D01*
X146735853Y-108015054D01*
X147217622Y-108336961D01*
X147785907Y-108450000D01*
X147844093Y-108450000D01*
X148412378Y-108336961D01*
X148894147Y-108015054D01*
X149216054Y-107533285D01*
X149329093Y-106965000D01*
X149216054Y-106396715D01*
X148894147Y-105914946D01*
X148852548Y-105887150D01*
X148900317Y-105878162D01*
X149116441Y-105739090D01*
X149261431Y-105526890D01*
X149312440Y-105275000D01*
X149312440Y-103575000D01*
X149268162Y-103339683D01*
X149129090Y-103123559D01*
X148916890Y-102978569D01*
X148665000Y-102927560D01*
X146965000Y-102927560D01*
X146729683Y-102971838D01*
X146513559Y-103110910D01*
X146368569Y-103323110D01*
X146317560Y-103575000D01*
X146317560Y-105275000D01*
X146361838Y-105510317D01*
X146500910Y-105726441D01*
X146713110Y-105871431D01*
X146780541Y-105885086D01*
X146735853Y-105914946D01*
X146413946Y-106396715D01*
X146300907Y-106965000D01*
X137392902Y-106965000D01*
X137493950Y-106457000D01*
X137384717Y-105907849D01*
X137073648Y-105442302D01*
X136691562Y-105187000D01*
X137073648Y-104931698D01*
X137384717Y-104466151D01*
X137493950Y-103917000D01*
X137384717Y-103367849D01*
X137073648Y-102902302D01*
X136691562Y-102647000D01*
X137073648Y-102391698D01*
X137384717Y-101926151D01*
X137493950Y-101377000D01*
X137384717Y-100827849D01*
X137073648Y-100362302D01*
X136608101Y-100051233D01*
X136058950Y-99942000D01*
X135187050Y-99942000D01*
X134637899Y-100051233D01*
X134172352Y-100362302D01*
X133861283Y-100827849D01*
X133752050Y-101377000D01*
X133861283Y-101926151D01*
X134172352Y-102391698D01*
X134554438Y-102647000D01*
X134172352Y-102902302D01*
X134052281Y-103082000D01*
X131396868Y-103082000D01*
X130371434Y-102056566D01*
X130239722Y-101968559D01*
X130100541Y-101875561D01*
X129850440Y-101825813D01*
X129850440Y-100577000D01*
X129806162Y-100341683D01*
X129667090Y-100125559D01*
X129454890Y-99980569D01*
X129203000Y-99929560D01*
X126803000Y-99929560D01*
X126567683Y-99973838D01*
X126351559Y-100112910D01*
X126206569Y-100325110D01*
X126162648Y-100542000D01*
X125300868Y-100542000D01*
X124958535Y-100199667D01*
X124859117Y-99959057D01*
X124596327Y-99695808D01*
X124252799Y-99553162D01*
X123885000Y-99552842D01*
X123885000Y-97613234D01*
X123984838Y-97372799D01*
X123985162Y-97000833D01*
X123843117Y-96657057D01*
X123580327Y-96393808D01*
X123236799Y-96251162D01*
X122864833Y-96250838D01*
X122521057Y-96392883D01*
X122257808Y-96655673D01*
X122115162Y-96999201D01*
X122114838Y-97371167D01*
X114777440Y-97371167D01*
X114777440Y-97340000D01*
X114733162Y-97104683D01*
X114594090Y-96888559D01*
X114381890Y-96743569D01*
X114130000Y-96692560D01*
X112222838Y-96692560D01*
X112112283Y-96581812D01*
X112084443Y-96570252D01*
X112110086Y-96559656D01*
X112222498Y-96447440D01*
X114130000Y-96447440D01*
X114365317Y-96403162D01*
X114581441Y-96264090D01*
X114726431Y-96051890D01*
X114777440Y-95800000D01*
X114777440Y-94800000D01*
X114733162Y-94564683D01*
X114594090Y-94348559D01*
X114381890Y-94203569D01*
X114130000Y-94152560D01*
X112222838Y-94152560D01*
X112112283Y-94041812D01*
X112084443Y-94030252D01*
X112110086Y-94019656D01*
X112222498Y-93907440D01*
X114130000Y-93907440D01*
X114365317Y-93863162D01*
X114581441Y-93724090D01*
X114726431Y-93511890D01*
X114777440Y-93260000D01*
X114777440Y-92260000D01*
X114733162Y-92024683D01*
X114594090Y-91808559D01*
X114381890Y-91663569D01*
X114130000Y-91612560D01*
X112222838Y-91612560D01*
X112112283Y-91501812D01*
X112084443Y-91490252D01*
X112110086Y-91479656D01*
X112222498Y-91367440D01*
X114130000Y-91367440D01*
X114365317Y-91323162D01*
X114581441Y-91184090D01*
X114726431Y-90971890D01*
X114777440Y-90720000D01*
X114777440Y-89720000D01*
X114733162Y-89484683D01*
X114594090Y-89268559D01*
X114381890Y-89123569D01*
X114130000Y-89072560D01*
X112222838Y-89072560D01*
X112112283Y-88961812D01*
X111566681Y-88735258D01*
X110975911Y-88734743D01*
X110429914Y-88960344D01*
X110011812Y-89377717D01*
X109992049Y-89425312D01*
X109773958Y-89355647D01*
X109641334Y-89488271D01*
X109588327Y-89360301D01*
X109499210Y-89271185D01*
X109594353Y-89176042D01*
X109514080Y-88924741D01*
X108958721Y-88723282D01*
X108368542Y-88749685D01*
X107945920Y-88924741D01*
X107894729Y-89085000D01*
X107760750Y-89085000D01*
X107602000Y-89243750D01*
X107602000Y-89382493D01*
X107506778Y-89412910D01*
X107479630Y-89385762D01*
X107362745Y-89502647D01*
X107348000Y-89380483D01*
X107348000Y-89243750D01*
X107189250Y-89085000D01*
X105773691Y-89085000D01*
X105540302Y-89181673D01*
X105361673Y-89360301D01*
X105265000Y-89593690D01*
X105265000Y-89934250D01*
X105423750Y-90093000D01*
X105778600Y-90093000D01*
X105776691Y-90098931D01*
X105796921Y-90347000D01*
X105423750Y-90347000D01*
X105265000Y-90505750D01*
X105265000Y-90846310D01*
X105361673Y-91079699D01*
X105540302Y-91258327D01*
X105773691Y-91355000D01*
X107189250Y-91355000D01*
X107348000Y-91196250D01*
X107348000Y-91059517D01*
X107362745Y-90937353D01*
X107479630Y-91054238D01*
X107506778Y-91027090D01*
X107602000Y-91057507D01*
X107602000Y-91196250D01*
X107760750Y-91355000D01*
X107894729Y-91355000D01*
X107937852Y-91490000D01*
X107894729Y-91625000D01*
X107760750Y-91625000D01*
X107602000Y-91783750D01*
X107602000Y-91922493D01*
X107506778Y-91952910D01*
X107479630Y-91925762D01*
X107362745Y-92042647D01*
X107348000Y-91920483D01*
X107348000Y-91783750D01*
X107189250Y-91625000D01*
X105773691Y-91625000D01*
X105540302Y-91721673D01*
X105361673Y-91900301D01*
X105265000Y-92133690D01*
X105265000Y-92474250D01*
X105423750Y-92633000D01*
X105778600Y-92633000D01*
X105776691Y-92638931D01*
X105796921Y-92887000D01*
X105423750Y-92887000D01*
X105265000Y-93045750D01*
X105265000Y-93386310D01*
X105361673Y-93619699D01*
X105540302Y-93798327D01*
X105773691Y-93895000D01*
X107189250Y-93895000D01*
X107348000Y-93736250D01*
X107348000Y-93599517D01*
X107362745Y-93477353D01*
X107479630Y-93594238D01*
X107506778Y-93567090D01*
X107602000Y-93597507D01*
X107602000Y-93736250D01*
X107760750Y-93895000D01*
X107894729Y-93895000D01*
X107937852Y-94030000D01*
X107894729Y-94165000D01*
X107760750Y-94165000D01*
X107602000Y-94323750D01*
X107602000Y-94462493D01*
X107506778Y-94492910D01*
X107479630Y-94465762D01*
X107362745Y-94582647D01*
X107348000Y-94460483D01*
X107348000Y-94323750D01*
X107189250Y-94165000D01*
X105773691Y-94165000D01*
X105540302Y-94261673D01*
X105361673Y-94440301D01*
X105265000Y-94673690D01*
X105265000Y-95014250D01*
X105423750Y-95173000D01*
X105778600Y-95173000D01*
X105776691Y-95178931D01*
X105796921Y-95427000D01*
X105423750Y-95427000D01*
X105265000Y-95585750D01*
X105265000Y-95926310D01*
X105361673Y-96159699D01*
X105540302Y-96338327D01*
X105773691Y-96435000D01*
X107189250Y-96435000D01*
X107348000Y-96276250D01*
X107348000Y-96139517D01*
X107362745Y-96017353D01*
X107479630Y-96134238D01*
X107506778Y-96107090D01*
X107602000Y-96137507D01*
X107602000Y-96276250D01*
X107760750Y-96435000D01*
X107894729Y-96435000D01*
X107935181Y-96561640D01*
X107889914Y-96580344D01*
X107777502Y-96692560D01*
X105900000Y-96692560D01*
X105664683Y-96736838D01*
X105448559Y-96875910D01*
X105303569Y-97088110D01*
X105252560Y-97340000D01*
X104710000Y-97340000D01*
X104710000Y-90594092D01*
X104802046Y-90502046D01*
X104955954Y-90271705D01*
X105010000Y-90000000D01*
X105010000Y-87036500D01*
X105104155Y-87264372D01*
X105732321Y-87893636D01*
X106553481Y-88234611D01*
X107442619Y-88235387D01*
X108264372Y-87895845D01*
X108893636Y-87267679D01*
X109234611Y-86446519D01*
X109235387Y-85557381D01*
X108895845Y-84735628D01*
X108267679Y-84106364D01*
X108035608Y-84010000D01*
X111790000Y-84010000D01*
X111790000Y-84449406D01*
X111346627Y-84265301D01*
X110656401Y-84264699D01*
X110018485Y-84528281D01*
X109529996Y-85015918D01*
X109265301Y-85653373D01*
X109264699Y-86343599D01*
X109528281Y-86981515D01*
X110015918Y-87470004D01*
X110653373Y-87734699D01*
X111343599Y-87735301D01*
X111981515Y-87471719D01*
X112470004Y-86984082D01*
X112734699Y-86346627D01*
X112734701Y-86343599D01*
X145264699Y-86343599D01*
X145528281Y-86981515D01*
X146015918Y-87470004D01*
X146653373Y-87734699D01*
X147343599Y-87735301D01*
X147981515Y-87471719D01*
X148470004Y-86984082D01*
X148734699Y-86346627D01*
X148735301Y-85656401D01*
X148471719Y-85018485D01*
X147984082Y-84529996D01*
X147346627Y-84265301D01*
X146656401Y-84264699D01*
X146018485Y-84528281D01*
X145529996Y-85015918D01*
X145265301Y-85653373D01*
X145264699Y-86343599D01*
X112734701Y-86343599D01*
X112734864Y-86157261D01*
X113000000Y-86210000D01*
X116000000Y-86210000D01*
X116271705Y-86155954D01*
X116502046Y-86002046D01*
X117002046Y-85502046D01*
X117155954Y-85271705D01*
X117210000Y-85000000D01*
X117210000Y-83794092D01*
X117294092Y-83710000D01*
X143405908Y-83710000D01*
X143497954Y-83802046D01*
X143497954Y-83802046D01*
G37*
X143497954Y-83802046D02*
X143728295Y-83955954D01*
X144000000Y-84010000D01*
X149963500Y-84010000D01*
X149735628Y-84104155D01*
X149106364Y-84732321D01*
X148765389Y-85553481D01*
X148764613Y-86442619D01*
X149104155Y-87264372D01*
X149292015Y-87452560D01*
X148250000Y-87452560D01*
X148014683Y-87496838D01*
X147798559Y-87635910D01*
X147653569Y-87848110D01*
X147602560Y-88100000D01*
X147602560Y-90900000D01*
X147646838Y-91135317D01*
X147785910Y-91351441D01*
X147998110Y-91496431D01*
X148250000Y-91547440D01*
X148677560Y-91547440D01*
X148677560Y-92675000D01*
X148721838Y-92910317D01*
X148860910Y-93126441D01*
X148965177Y-93197683D01*
X148764054Y-93498685D01*
X148664336Y-94000000D01*
X148764054Y-94501315D01*
X149048026Y-94926310D01*
X149158311Y-95000000D01*
X149048026Y-95073690D01*
X148764054Y-95498685D01*
X148664336Y-96000000D01*
X148754356Y-96452560D01*
X148250000Y-96452560D01*
X148014683Y-96496838D01*
X147798559Y-96635910D01*
X147653569Y-96848110D01*
X147602560Y-97100000D01*
X147602560Y-99900000D01*
X147646838Y-100135317D01*
X147785910Y-100351441D01*
X147998110Y-100496431D01*
X148250000Y-100547440D01*
X151750000Y-100547440D01*
X151985317Y-100503162D01*
X152201441Y-100364090D01*
X152346431Y-100151890D01*
X152397440Y-99900000D01*
X152397440Y-97100000D01*
X152353162Y-96864683D01*
X152214090Y-96648559D01*
X152001890Y-96503569D01*
X151750000Y-96452560D01*
X151245644Y-96452560D01*
X151335664Y-96000000D01*
X151235946Y-95498685D01*
X150951974Y-95073690D01*
X150841689Y-95000000D01*
X150951974Y-94926310D01*
X151235946Y-94501315D01*
X151335664Y-94000000D01*
X151235946Y-93498685D01*
X151034992Y-93197936D01*
X151126441Y-93139090D01*
X151271431Y-92926890D01*
X151322440Y-92675000D01*
X151322440Y-91547440D01*
X151750000Y-91547440D01*
X151985317Y-91503162D01*
X152201441Y-91364090D01*
X152346431Y-91151890D01*
X152397440Y-90900000D01*
X152397440Y-88100000D01*
X152353162Y-87864683D01*
X152330644Y-87829689D01*
X152893636Y-87267679D01*
X152990000Y-87035608D01*
X152990000Y-90000000D01*
X153044046Y-90271705D01*
X153197954Y-90502046D01*
X153290000Y-90594092D01*
X153290000Y-99205908D01*
X152497954Y-99997954D01*
X152344046Y-100228295D01*
X152290000Y-100500000D01*
X152290000Y-115500000D01*
X152344046Y-115771705D01*
X152497954Y-116002046D01*
X153290000Y-116794092D01*
X153290000Y-125405908D01*
X153197954Y-125497954D01*
X153044046Y-125728295D01*
X152990000Y-126000000D01*
X152990000Y-128963500D01*
X152895845Y-128735628D01*
X152267679Y-128106364D01*
X151446519Y-127765389D01*
X150557381Y-127764613D01*
X149735628Y-128104155D01*
X149106364Y-128732321D01*
X148765389Y-129553481D01*
X148764613Y-130442619D01*
X149104155Y-131264372D01*
X149732321Y-131893636D01*
X149964392Y-131990000D01*
X144000000Y-131990000D01*
X143728295Y-132044046D01*
X143497954Y-132197954D01*
X143405908Y-132290000D01*
X121262608Y-132290000D01*
X121306924Y-132271645D01*
X121735183Y-131881358D01*
X121981486Y-131356892D01*
X121860819Y-131127000D01*
X120667000Y-131127000D01*
X120667000Y-131147000D01*
X120413000Y-131147000D01*
X120413000Y-131127000D01*
X120393000Y-131127000D01*
X120393000Y-130873000D01*
X120413000Y-130873000D01*
X120413000Y-129679845D01*
X120667000Y-129679845D01*
X120667000Y-130873000D01*
X121860819Y-130873000D01*
X121981486Y-130643108D01*
X121840829Y-130343599D01*
X145264699Y-130343599D01*
X145528281Y-130981515D01*
X146015918Y-131470004D01*
X146653373Y-131734699D01*
X147343599Y-131735301D01*
X147981515Y-131471719D01*
X148470004Y-130984082D01*
X148734699Y-130346627D01*
X148735301Y-129656401D01*
X148471719Y-129018485D01*
X147984082Y-128529996D01*
X147346627Y-128265301D01*
X146656401Y-128264699D01*
X146018485Y-128528281D01*
X145529996Y-129015918D01*
X145265301Y-129653373D01*
X145264699Y-130343599D01*
X121840829Y-130343599D01*
X121735183Y-130118642D01*
X121306924Y-129728355D01*
X120896890Y-129558524D01*
X120667000Y-129679845D01*
X120413000Y-129679845D01*
X120183110Y-129558524D01*
X119773076Y-129728355D01*
X119470063Y-130004501D01*
X119453162Y-129914683D01*
X119314090Y-129698559D01*
X119101890Y-129553569D01*
X118850000Y-129502560D01*
X117150000Y-129502560D01*
X116914683Y-129546838D01*
X116698559Y-129685910D01*
X116553569Y-129898110D01*
X116502560Y-130150000D01*
X116502560Y-131850000D01*
X116546838Y-132085317D01*
X116678548Y-132290000D01*
X114594092Y-132290000D01*
X114502046Y-132197954D01*
X114271705Y-132044046D01*
X114000000Y-131990000D01*
X108036500Y-131990000D01*
X108264372Y-131895845D01*
X108893636Y-131267679D01*
X109234611Y-130446519D01*
X109234700Y-130343599D01*
X109264699Y-130343599D01*
X109528281Y-130981515D01*
X110015918Y-131470004D01*
X110653373Y-131734699D01*
X111343599Y-131735301D01*
X111981515Y-131471719D01*
X112470004Y-130984082D01*
X112734699Y-130346627D01*
X112735301Y-129656401D01*
X112471719Y-129018485D01*
X111984082Y-128529996D01*
X111346627Y-128265301D01*
X110656401Y-128264699D01*
X110018485Y-128528281D01*
X109529996Y-129015918D01*
X109265301Y-129653373D01*
X109264699Y-130343599D01*
X109234700Y-130343599D01*
X109235387Y-129557381D01*
X108895845Y-128735628D01*
X108267679Y-128106364D01*
X107446519Y-127765389D01*
X106557381Y-127764613D01*
X105735628Y-128104155D01*
X105106364Y-128732321D01*
X105010000Y-128964392D01*
X105010000Y-126000000D01*
X104955954Y-125728295D01*
X104802046Y-125497954D01*
X104710000Y-125405908D01*
X104710000Y-97340000D01*
X105252560Y-97340000D01*
X105252560Y-98340000D01*
X105296838Y-98575317D01*
X105435910Y-98791441D01*
X105648110Y-98936431D01*
X105900000Y-98987440D01*
X107777162Y-98987440D01*
X107887717Y-99098188D01*
X107915557Y-99109748D01*
X107889914Y-99120344D01*
X107777502Y-99232560D01*
X105900000Y-99232560D01*
X105664683Y-99276838D01*
X105448559Y-99415910D01*
X105303569Y-99628110D01*
X105252560Y-99880000D01*
X105252560Y-100880000D01*
X105296838Y-101115317D01*
X105435910Y-101331441D01*
X105648110Y-101476431D01*
X105900000Y-101527440D01*
X107777162Y-101527440D01*
X107887717Y-101638188D01*
X107915557Y-101649748D01*
X107889914Y-101660344D01*
X107777502Y-101772560D01*
X105900000Y-101772560D01*
X105664683Y-101816838D01*
X105448559Y-101955910D01*
X105303569Y-102168110D01*
X105252560Y-102420000D01*
X105252560Y-103420000D01*
X105296838Y-103655317D01*
X105435910Y-103871441D01*
X105648110Y-104016431D01*
X105900000Y-104067440D01*
X107777162Y-104067440D01*
X107887717Y-104178188D01*
X107915557Y-104189748D01*
X107889914Y-104200344D01*
X107777502Y-104312560D01*
X105900000Y-104312560D01*
X105664683Y-104356838D01*
X105448559Y-104495910D01*
X105303569Y-104708110D01*
X105252560Y-104960000D01*
X105252560Y-105960000D01*
X105296838Y-106195317D01*
X105435910Y-106411441D01*
X105648110Y-106556431D01*
X105900000Y-106607440D01*
X107777162Y-106607440D01*
X107887717Y-106718188D01*
X107915557Y-106729748D01*
X107889914Y-106740344D01*
X107777502Y-106852560D01*
X105900000Y-106852560D01*
X105664683Y-106896838D01*
X105448559Y-107035910D01*
X105303569Y-107248110D01*
X105252560Y-107500000D01*
X105252560Y-108500000D01*
X105296838Y-108735317D01*
X105435910Y-108951441D01*
X105648110Y-109096431D01*
X105900000Y-109147440D01*
X107777162Y-109147440D01*
X107887717Y-109258188D01*
X107915557Y-109269748D01*
X107889914Y-109280344D01*
X107777502Y-109392560D01*
X105900000Y-109392560D01*
X105664683Y-109436838D01*
X105448559Y-109575910D01*
X105303569Y-109788110D01*
X105252560Y-110040000D01*
X105252560Y-111040000D01*
X105296838Y-111275317D01*
X105435910Y-111491441D01*
X105648110Y-111636431D01*
X105900000Y-111687440D01*
X107777162Y-111687440D01*
X107887717Y-111798188D01*
X107915557Y-111809748D01*
X107889914Y-111820344D01*
X107777502Y-111932560D01*
X105900000Y-111932560D01*
X105664683Y-111976838D01*
X105448559Y-112115910D01*
X105303569Y-112328110D01*
X105252560Y-112580000D01*
X105252560Y-113580000D01*
X105296838Y-113815317D01*
X105435910Y-114031441D01*
X105648110Y-114176431D01*
X105900000Y-114227440D01*
X107777162Y-114227440D01*
X107887717Y-114338188D01*
X107915557Y-114349748D01*
X107889914Y-114360344D01*
X107777502Y-114472560D01*
X105900000Y-114472560D01*
X105664683Y-114516838D01*
X105448559Y-114655910D01*
X105303569Y-114868110D01*
X105252560Y-115120000D01*
X105252560Y-116120000D01*
X105296838Y-116355317D01*
X105435910Y-116571441D01*
X105648110Y-116716431D01*
X105900000Y-116767440D01*
X107777162Y-116767440D01*
X107887717Y-116878188D01*
X107915557Y-116889748D01*
X107889914Y-116900344D01*
X107777502Y-117012560D01*
X105900000Y-117012560D01*
X105664683Y-117056838D01*
X105448559Y-117195910D01*
X105303569Y-117408110D01*
X105252560Y-117660000D01*
X105252560Y-118660000D01*
X105296838Y-118895317D01*
X105435910Y-119111441D01*
X105648110Y-119256431D01*
X105900000Y-119307440D01*
X107777162Y-119307440D01*
X107887717Y-119418188D01*
X107915557Y-119429748D01*
X107889914Y-119440344D01*
X107777502Y-119552560D01*
X105900000Y-119552560D01*
X105664683Y-119596838D01*
X105448559Y-119735910D01*
X105303569Y-119948110D01*
X105252560Y-120200000D01*
X105252560Y-121200000D01*
X105296838Y-121435317D01*
X105435910Y-121651441D01*
X105648110Y-121796431D01*
X105900000Y-121847440D01*
X107777162Y-121847440D01*
X107887717Y-121958188D01*
X107915557Y-121969748D01*
X107889914Y-121980344D01*
X107777502Y-122092560D01*
X105900000Y-122092560D01*
X105664683Y-122136838D01*
X105448559Y-122275910D01*
X105303569Y-122488110D01*
X105252560Y-122740000D01*
X105252560Y-123740000D01*
X105296838Y-123975317D01*
X105435910Y-124191441D01*
X105648110Y-124336431D01*
X105900000Y-124387440D01*
X107777162Y-124387440D01*
X107887717Y-124498188D01*
X107915557Y-124509748D01*
X107889914Y-124520344D01*
X107777502Y-124632560D01*
X105900000Y-124632560D01*
X105664683Y-124676838D01*
X105448559Y-124815910D01*
X105303569Y-125028110D01*
X105252560Y-125280000D01*
X105252560Y-126280000D01*
X105296838Y-126515317D01*
X105435910Y-126731441D01*
X105648110Y-126876431D01*
X105900000Y-126927440D01*
X107777162Y-126927440D01*
X107887717Y-127038188D01*
X108433319Y-127264742D01*
X109024089Y-127265257D01*
X109570086Y-127039656D01*
X109988188Y-126622283D01*
X109999748Y-126594443D01*
X110010344Y-126620086D01*
X110427717Y-127038188D01*
X110973319Y-127264742D01*
X111564089Y-127265257D01*
X112110086Y-127039656D01*
X112222498Y-126927440D01*
X114130000Y-126927440D01*
X114365317Y-126883162D01*
X114581441Y-126744090D01*
X114726431Y-126531890D01*
X114777440Y-126280000D01*
X114777440Y-125280000D01*
X114733162Y-125044683D01*
X114603323Y-124842907D01*
X126137000Y-124842907D01*
X126137000Y-124901093D01*
X126250039Y-125469378D01*
X126571946Y-125951147D01*
X127053715Y-126273054D01*
X127622000Y-126386093D01*
X128190285Y-126273054D01*
X128672054Y-125951147D01*
X128699850Y-125909548D01*
X128708838Y-125957317D01*
X128847910Y-126173441D01*
X129060110Y-126318431D01*
X129312000Y-126369440D01*
X131012000Y-126369440D01*
X131247317Y-126325162D01*
X131463441Y-126186090D01*
X131608431Y-125973890D01*
X131659440Y-125722000D01*
X131659440Y-124022000D01*
X131615162Y-123786683D01*
X131476090Y-123570559D01*
X131263890Y-123425569D01*
X131012000Y-123374560D01*
X129312000Y-123374560D01*
X129076683Y-123418838D01*
X128860559Y-123557910D01*
X128715569Y-123770110D01*
X128701914Y-123837541D01*
X128672054Y-123792853D01*
X128190285Y-123470946D01*
X127622000Y-123357907D01*
X127053715Y-123470946D01*
X126571946Y-123792853D01*
X126250039Y-124274622D01*
X126137000Y-124842907D01*
X114603323Y-124842907D01*
X114594090Y-124828559D01*
X114381890Y-124683569D01*
X114130000Y-124632560D01*
X112222838Y-124632560D01*
X112112283Y-124521812D01*
X112084443Y-124510252D01*
X112110086Y-124499656D01*
X112222498Y-124387440D01*
X114130000Y-124387440D01*
X114365317Y-124343162D01*
X114581441Y-124204090D01*
X114726431Y-123991890D01*
X114777440Y-123740000D01*
X114777440Y-122740000D01*
X114733162Y-122504683D01*
X114594090Y-122288559D01*
X114381890Y-122143569D01*
X114130000Y-122092560D01*
X112222838Y-122092560D01*
X112208304Y-122078000D01*
X137917000Y-122078000D01*
X138003397Y-122512345D01*
X138249434Y-122880566D01*
X139646434Y-124277566D01*
X140014654Y-124523603D01*
X140449000Y-124610000D01*
X146862984Y-124610000D01*
X147217622Y-124846961D01*
X147785907Y-124960000D01*
X147844093Y-124960000D01*
X148412378Y-124846961D01*
X148894147Y-124525054D01*
X149216054Y-124043285D01*
X149329093Y-123475000D01*
X149216054Y-122906715D01*
X148894147Y-122424946D01*
X148852548Y-122397150D01*
X148900317Y-122388162D01*
X149116441Y-122249090D01*
X149261431Y-122036890D01*
X149312440Y-121785000D01*
X149312440Y-120085000D01*
X149268162Y-119849683D01*
X149129090Y-119633559D01*
X148916890Y-119488569D01*
X148665000Y-119437560D01*
X146965000Y-119437560D01*
X146729683Y-119481838D01*
X146513559Y-119620910D01*
X146391192Y-119800000D01*
X140449000Y-119800000D01*
X140014654Y-119886397D01*
X139646434Y-120132434D01*
X139400397Y-120500654D01*
X139314000Y-120935000D01*
X139326450Y-120997592D01*
X139052000Y-120943000D01*
X138617655Y-121029397D01*
X138249434Y-121275434D01*
X138003397Y-121643655D01*
X137917000Y-122078000D01*
X112208304Y-122078000D01*
X112112283Y-121981812D01*
X112084443Y-121970252D01*
X112110086Y-121959656D01*
X112222498Y-121847440D01*
X114130000Y-121847440D01*
X114365317Y-121803162D01*
X114581441Y-121664090D01*
X114726431Y-121451890D01*
X114777440Y-121200000D01*
X114777440Y-120200000D01*
X114733162Y-119964683D01*
X114594090Y-119748559D01*
X114381890Y-119603569D01*
X114130000Y-119552560D01*
X112222838Y-119552560D01*
X112112283Y-119441812D01*
X112084443Y-119430252D01*
X112110086Y-119419656D01*
X112222498Y-119307440D01*
X114130000Y-119307440D01*
X114365317Y-119263162D01*
X114581441Y-119124090D01*
X114726431Y-118911890D01*
X114777440Y-118660000D01*
X114777440Y-117660000D01*
X114733162Y-117424683D01*
X114594090Y-117208559D01*
X114381890Y-117063569D01*
X114130000Y-117012560D01*
X112222838Y-117012560D01*
X112112283Y-116901812D01*
X112084443Y-116890252D01*
X112110086Y-116879656D01*
X112222498Y-116767440D01*
X114130000Y-116767440D01*
X114365317Y-116723162D01*
X114581441Y-116584090D01*
X114726431Y-116371890D01*
X114777440Y-116120000D01*
X114777440Y-115120000D01*
X114733162Y-114884683D01*
X114594090Y-114668559D01*
X114381890Y-114523569D01*
X114345338Y-114516167D01*
X119574838Y-114516167D01*
X119675000Y-114758578D01*
X119675000Y-117332766D01*
X119575162Y-117573201D01*
X119574838Y-117945167D01*
X119716883Y-118288943D01*
X119979673Y-118552192D01*
X120323201Y-118694838D01*
X120695167Y-118695162D01*
X121038943Y-118553117D01*
X121302192Y-118290327D01*
X121444838Y-117946799D01*
X121445162Y-117574833D01*
X121345000Y-117332422D01*
X121345000Y-116675167D01*
X122368838Y-116675167D01*
X122510883Y-117018943D01*
X122773673Y-117282192D01*
X123117201Y-117424838D01*
X123489167Y-117425162D01*
X123731578Y-117325000D01*
X125336000Y-117325000D01*
X125655541Y-117261439D01*
X125926434Y-117080434D01*
X126174825Y-116832043D01*
X126241283Y-117166151D01*
X126552352Y-117631698D01*
X126934438Y-117887000D01*
X126552352Y-118142302D01*
X126241283Y-118607849D01*
X126132050Y-119157000D01*
X126241283Y-119706151D01*
X126552352Y-120171698D01*
X127017899Y-120482767D01*
X127567050Y-120592000D01*
X128438950Y-120592000D01*
X128988101Y-120482767D01*
X129453648Y-120171698D01*
X129764717Y-119706151D01*
X129873950Y-119157000D01*
X129764717Y-118607849D01*
X129453648Y-118142302D01*
X129071562Y-117887000D01*
X129453648Y-117631698D01*
X129498770Y-117564167D01*
X129861838Y-117564167D01*
X129962000Y-117806578D01*
X129962000Y-118395000D01*
X130025561Y-118714541D01*
X130206566Y-118985434D01*
X130968566Y-119747434D01*
X131239460Y-119928440D01*
X131559000Y-119992000D01*
X134052281Y-119992000D01*
X134172352Y-120171698D01*
X134637899Y-120482767D01*
X135187050Y-120592000D01*
X136058950Y-120592000D01*
X136608101Y-120482767D01*
X137073648Y-120171698D01*
X137384717Y-119706151D01*
X137493950Y-119157000D01*
X137384717Y-118607849D01*
X137073648Y-118142302D01*
X136691562Y-117887000D01*
X137073648Y-117631698D01*
X137384717Y-117166151D01*
X137493950Y-116617000D01*
X137384717Y-116067849D01*
X137073648Y-115602302D01*
X136691562Y-115347000D01*
X136881630Y-115220000D01*
X146300907Y-115220000D01*
X146413946Y-115788285D01*
X146735853Y-116270054D01*
X147217622Y-116591961D01*
X147785907Y-116705000D01*
X147844093Y-116705000D01*
X148412378Y-116591961D01*
X148894147Y-116270054D01*
X149216054Y-115788285D01*
X149329093Y-115220000D01*
X149216054Y-114651715D01*
X148894147Y-114169946D01*
X148850223Y-114140597D01*
X149024698Y-114068327D01*
X149203327Y-113889699D01*
X149300000Y-113656310D01*
X149300000Y-112965750D01*
X149141250Y-112807000D01*
X147942000Y-112807000D01*
X147942000Y-112827000D01*
X147688000Y-112827000D01*
X147688000Y-112807000D01*
X146488750Y-112807000D01*
X146330000Y-112965750D01*
X146330000Y-113656310D01*
X146426673Y-113889699D01*
X146605302Y-114068327D01*
X146779777Y-114140597D01*
X146735853Y-114169946D01*
X146413946Y-114651715D01*
X146300907Y-115220000D01*
X136881630Y-115220000D01*
X137073648Y-115091698D01*
X137384717Y-114626151D01*
X137493950Y-114077000D01*
X137384717Y-113527849D01*
X137073648Y-113062302D01*
X136695293Y-112809493D01*
X137127500Y-112461896D01*
X137397367Y-111968819D01*
X137414904Y-111886039D01*
X137314721Y-111703690D01*
X146330000Y-111703690D01*
X146330000Y-112394250D01*
X146488750Y-112553000D01*
X147688000Y-112553000D01*
X147688000Y-111353750D01*
X147942000Y-111353750D01*
X147942000Y-112553000D01*
X149141250Y-112553000D01*
X149300000Y-112394250D01*
X149300000Y-111703690D01*
X149203327Y-111470301D01*
X149024698Y-111291673D01*
X148791309Y-111195000D01*
X148100750Y-111195000D01*
X147942000Y-111353750D01*
X147688000Y-111353750D01*
X147529250Y-111195000D01*
X146838691Y-111195000D01*
X146605302Y-111291673D01*
X146426673Y-111470301D01*
X146330000Y-111703690D01*
X137314721Y-111703690D01*
X137292915Y-111664000D01*
X135750000Y-111664000D01*
X135750000Y-111684000D01*
X135496000Y-111684000D01*
X135496000Y-111664000D01*
X133953085Y-111664000D01*
X133831096Y-111886039D01*
X133848633Y-111968819D01*
X134118500Y-112461896D01*
X134550707Y-112809493D01*
X134172352Y-113062302D01*
X133861283Y-113527849D01*
X133752050Y-114077000D01*
X133861283Y-114626151D01*
X134172352Y-115091698D01*
X134554438Y-115347000D01*
X134172352Y-115602302D01*
X133861283Y-116067849D01*
X133752050Y-116617000D01*
X133861283Y-117166151D01*
X134172352Y-117631698D01*
X134554438Y-117887000D01*
X134172352Y-118142302D01*
X134052281Y-118322000D01*
X131904868Y-118322000D01*
X131632000Y-118049132D01*
X131632000Y-117806234D01*
X131731838Y-117565799D01*
X131732162Y-117193833D01*
X131590117Y-116850057D01*
X131327327Y-116586808D01*
X130983799Y-116444162D01*
X130611833Y-116443838D01*
X130268057Y-116585883D01*
X130004808Y-116848673D01*
X129862162Y-117192201D01*
X129861838Y-117564167D01*
X129498770Y-117564167D01*
X129764717Y-117166151D01*
X129873950Y-116617000D01*
X129764717Y-116067849D01*
X129453648Y-115602302D01*
X129071562Y-115347000D01*
X129453648Y-115091698D01*
X129764717Y-114626151D01*
X129873950Y-114077000D01*
X129764717Y-113527849D01*
X129453648Y-113062302D01*
X129075293Y-112809493D01*
X129507500Y-112461896D01*
X129777367Y-111968819D01*
X129794904Y-111886039D01*
X129672915Y-111664000D01*
X128130000Y-111664000D01*
X128130000Y-111684000D01*
X127876000Y-111684000D01*
X127876000Y-111664000D01*
X126333085Y-111664000D01*
X126211096Y-111886039D01*
X126228633Y-111968819D01*
X126305567Y-112109386D01*
X126284799Y-112100762D01*
X125912833Y-112100438D01*
X125569057Y-112242483D01*
X125305808Y-112505273D01*
X125163162Y-112848801D01*
X125162838Y-113220767D01*
X125263000Y-113463178D01*
X125263000Y-115382132D01*
X124990132Y-115655000D01*
X123731234Y-115655000D01*
X123490799Y-115555162D01*
X123118833Y-115554838D01*
X122775057Y-115696883D01*
X122511808Y-115959673D01*
X122369162Y-116303201D01*
X122368838Y-116675167D01*
X121345000Y-116675167D01*
X121345000Y-114758234D01*
X121444838Y-114517799D01*
X121445162Y-114145833D01*
X121303117Y-113802057D01*
X121040327Y-113538808D01*
X120696799Y-113396162D01*
X120324833Y-113395838D01*
X119981057Y-113537883D01*
X119717808Y-113800673D01*
X119575162Y-114144201D01*
X119574838Y-114516167D01*
X114345338Y-114516167D01*
X114130000Y-114472560D01*
X112222838Y-114472560D01*
X112112283Y-114361812D01*
X112084443Y-114350252D01*
X112110086Y-114339656D01*
X112222498Y-114227440D01*
X114130000Y-114227440D01*
X114365317Y-114183162D01*
X114581441Y-114044090D01*
X114726431Y-113831890D01*
X114777440Y-113580000D01*
X114777440Y-112580000D01*
X114733162Y-112344683D01*
X114594090Y-112128559D01*
X114381890Y-111983569D01*
X114130000Y-111932560D01*
X112222838Y-111932560D01*
X112112283Y-111821812D01*
X112084443Y-111810252D01*
X112110086Y-111799656D01*
X112222498Y-111687440D01*
X114130000Y-111687440D01*
X114365317Y-111643162D01*
X114581441Y-111504090D01*
X114726431Y-111291890D01*
X114777440Y-111040000D01*
X114777440Y-110040000D01*
X114733162Y-109804683D01*
X114594090Y-109588559D01*
X114381890Y-109443569D01*
X114130000Y-109392560D01*
X112222838Y-109392560D01*
X112176399Y-109346039D01*
X126211096Y-109346039D01*
X126228633Y-109428819D01*
X126498500Y-109921896D01*
X126927607Y-110267000D01*
X126498500Y-110612104D01*
X126228633Y-111105181D01*
X126211096Y-111187961D01*
X126333085Y-111410000D01*
X127876000Y-111410000D01*
X127876000Y-109124000D01*
X128130000Y-109124000D01*
X128130000Y-111410000D01*
X129672915Y-111410000D01*
X129794904Y-111187961D01*
X129777367Y-111105181D01*
X129507500Y-110612104D01*
X129078393Y-110267000D01*
X129507500Y-109921896D01*
X129777367Y-109428819D01*
X129794904Y-109346039D01*
X129672915Y-109124000D01*
X128130000Y-109124000D01*
X127876000Y-109124000D01*
X126333085Y-109124000D01*
X126211096Y-109346039D01*
X112176399Y-109346039D01*
X112112283Y-109281812D01*
X112084443Y-109270252D01*
X112110086Y-109259656D01*
X112222498Y-109147440D01*
X114130000Y-109147440D01*
X114365317Y-109103162D01*
X114581441Y-108964090D01*
X114726431Y-108751890D01*
X114777440Y-108500000D01*
X114777440Y-107500000D01*
X114733162Y-107264683D01*
X114594090Y-107048559D01*
X114381890Y-106903569D01*
X114130000Y-106852560D01*
X112222838Y-106852560D01*
X112112283Y-106741812D01*
X112084443Y-106730252D01*
X112110086Y-106719656D01*
X112222498Y-106607440D01*
X114130000Y-106607440D01*
X114365317Y-106563162D01*
X114581441Y-106424090D01*
X114726431Y-106211890D01*
X114777440Y-105960000D01*
X114777440Y-104960000D01*
X114733162Y-104724683D01*
X114594090Y-104508559D01*
X114381890Y-104363569D01*
X114130000Y-104312560D01*
X112222838Y-104312560D01*
X112112283Y-104201812D01*
X112084443Y-104190252D01*
X112110086Y-104179656D01*
X112222498Y-104067440D01*
X114130000Y-104067440D01*
X114365317Y-104023162D01*
X114581441Y-103884090D01*
X114726431Y-103671890D01*
X114777440Y-103420000D01*
X114777440Y-102420000D01*
X114733162Y-102184683D01*
X114594090Y-101968559D01*
X114381890Y-101823569D01*
X114130000Y-101772560D01*
X112222838Y-101772560D01*
X112112283Y-101661812D01*
X112084443Y-101650252D01*
X112110086Y-101639656D01*
X112222498Y-101527440D01*
X114130000Y-101527440D01*
X114365317Y-101483162D01*
X114581441Y-101344090D01*
X114726431Y-101131890D01*
X114777440Y-100880000D01*
X114777440Y-100673167D01*
X119574838Y-100673167D01*
X119675000Y-100915578D01*
X119675000Y-102473766D01*
X119575162Y-102714201D01*
X119574838Y-103086167D01*
X119716883Y-103429943D01*
X119979673Y-103693192D01*
X120323201Y-103835838D01*
X120695167Y-103836162D01*
X121038943Y-103694117D01*
X121302192Y-103431327D01*
X121444838Y-103087799D01*
X121445162Y-102715833D01*
X121345000Y-102473422D01*
X121345000Y-100915234D01*
X121444838Y-100674799D01*
X121445162Y-100302833D01*
X121303117Y-99959057D01*
X121040327Y-99695808D01*
X120696799Y-99553162D01*
X120324833Y-99552838D01*
X119981057Y-99694883D01*
X119717808Y-99957673D01*
X119575162Y-100301201D01*
X119574838Y-100673167D01*
X114777440Y-100673167D01*
X114777440Y-99880000D01*
X114733162Y-99644683D01*
X114594090Y-99428559D01*
X114381890Y-99283569D01*
X114130000Y-99232560D01*
X112222838Y-99232560D01*
X112112283Y-99121812D01*
X112084443Y-99110252D01*
X112110086Y-99099656D01*
X112222498Y-98987440D01*
X114130000Y-98987440D01*
X114365317Y-98943162D01*
X114581441Y-98804090D01*
X114726431Y-98591890D01*
X114777440Y-98340000D01*
X114777440Y-97371167D01*
X122114838Y-97371167D01*
X122215000Y-97613578D01*
X122215000Y-104425000D01*
X122278561Y-104744541D01*
X122422526Y-104960000D01*
X122459566Y-105015434D01*
X122840566Y-105396434D01*
X123111459Y-105577439D01*
X123431000Y-105641000D01*
X123974132Y-105641000D01*
X124120000Y-105786868D01*
X124120000Y-106457000D01*
X124183561Y-106776541D01*
X124309606Y-106965180D01*
X124364566Y-107047434D01*
X125634566Y-108317434D01*
X125905459Y-108498439D01*
X126225000Y-108562000D01*
X126230374Y-108562000D01*
X126228633Y-108565181D01*
X126211096Y-108647961D01*
X126333085Y-108870000D01*
X127876000Y-108870000D01*
X127876000Y-108850000D01*
X128130000Y-108850000D01*
X128130000Y-108870000D01*
X129672915Y-108870000D01*
X129794904Y-108647961D01*
X129777367Y-108565181D01*
X129775626Y-108562000D01*
X129962000Y-108562000D01*
X129962000Y-112633766D01*
X129862162Y-112874201D01*
X129861838Y-113246167D01*
X130003883Y-113589943D01*
X130266673Y-113853192D01*
X130610201Y-113995838D01*
X130982167Y-113996162D01*
X131239695Y-113889754D01*
X131378654Y-113982603D01*
X131813000Y-114069000D01*
X132247346Y-113982603D01*
X132615566Y-113736566D01*
X132861603Y-113368346D01*
X132948000Y-112934000D01*
X132948000Y-109346039D01*
X133831096Y-109346039D01*
X133848633Y-109428819D01*
X134118500Y-109921896D01*
X134547607Y-110267000D01*
X134118500Y-110612104D01*
X133848633Y-111105181D01*
X133831096Y-111187961D01*
X133953085Y-111410000D01*
X135496000Y-111410000D01*
X135496000Y-109124000D01*
X135750000Y-109124000D01*
X135750000Y-111410000D01*
X137292915Y-111410000D01*
X137414904Y-111187961D01*
X137397367Y-111105181D01*
X137127500Y-110612104D01*
X136698393Y-110267000D01*
X137127500Y-109921896D01*
X137397367Y-109428819D01*
X137414904Y-109346039D01*
X137292915Y-109124000D01*
X135750000Y-109124000D01*
X135496000Y-109124000D01*
X133953085Y-109124000D01*
X133831096Y-109346039D01*
X132948000Y-109346039D01*
X132948000Y-107473000D01*
X132861603Y-107038654D01*
X132615566Y-106670434D01*
X132247346Y-106424397D01*
X131813000Y-106338000D01*
X131378654Y-106424397D01*
X131010434Y-106670434D01*
X130793874Y-106994538D01*
X130735541Y-106955561D01*
X130416000Y-106892000D01*
X129787423Y-106892000D01*
X129873950Y-106457000D01*
X129764717Y-105907849D01*
X129453648Y-105442302D01*
X129071562Y-105187000D01*
X129453648Y-104931698D01*
X129764717Y-104466151D01*
X129873317Y-103920185D01*
X130460566Y-104507434D01*
X130731459Y-104688439D01*
X131051000Y-104752000D01*
X134052281Y-104752000D01*
X134172352Y-104931698D01*
X134554438Y-105187000D01*
X134172352Y-105442302D01*
X133861283Y-105907849D01*
X133752050Y-106457000D01*
X133861283Y-107006151D01*
X134172352Y-107471698D01*
X134550707Y-107724507D01*
X134118500Y-108072104D01*
X133848633Y-108565181D01*
X133831096Y-108647961D01*
X133953085Y-108870000D01*
X135496000Y-108870000D01*
X135496000Y-108850000D01*
X135750000Y-108850000D01*
X135750000Y-108870000D01*
X137292915Y-108870000D01*
X137414904Y-108647961D01*
X137397367Y-108565181D01*
X137127500Y-108072104D01*
X136695293Y-107724507D01*
X137073648Y-107471698D01*
X137384717Y-107006151D01*
X137392902Y-106965000D01*
X146300907Y-106965000D01*
X146413946Y-107533285D01*
X146735853Y-108015054D01*
X147217622Y-108336961D01*
X147785907Y-108450000D01*
X147844093Y-108450000D01*
X148412378Y-108336961D01*
X148894147Y-108015054D01*
X149216054Y-107533285D01*
X149329093Y-106965000D01*
X149216054Y-106396715D01*
X148894147Y-105914946D01*
X148852548Y-105887150D01*
X148900317Y-105878162D01*
X149116441Y-105739090D01*
X149261431Y-105526890D01*
X149312440Y-105275000D01*
X149312440Y-103575000D01*
X149268162Y-103339683D01*
X149129090Y-103123559D01*
X148916890Y-102978569D01*
X148665000Y-102927560D01*
X146965000Y-102927560D01*
X146729683Y-102971838D01*
X146513559Y-103110910D01*
X146368569Y-103323110D01*
X146317560Y-103575000D01*
X146317560Y-105275000D01*
X146361838Y-105510317D01*
X146500910Y-105726441D01*
X146713110Y-105871431D01*
X146780541Y-105885086D01*
X146735853Y-105914946D01*
X146413946Y-106396715D01*
X146300907Y-106965000D01*
X137392902Y-106965000D01*
X137493950Y-106457000D01*
X137384717Y-105907849D01*
X137073648Y-105442302D01*
X136691562Y-105187000D01*
X137073648Y-104931698D01*
X137384717Y-104466151D01*
X137493950Y-103917000D01*
X137384717Y-103367849D01*
X137073648Y-102902302D01*
X136691562Y-102647000D01*
X137073648Y-102391698D01*
X137384717Y-101926151D01*
X137493950Y-101377000D01*
X137384717Y-100827849D01*
X137073648Y-100362302D01*
X136608101Y-100051233D01*
X136058950Y-99942000D01*
X135187050Y-99942000D01*
X134637899Y-100051233D01*
X134172352Y-100362302D01*
X133861283Y-100827849D01*
X133752050Y-101377000D01*
X133861283Y-101926151D01*
X134172352Y-102391698D01*
X134554438Y-102647000D01*
X134172352Y-102902302D01*
X134052281Y-103082000D01*
X131396868Y-103082000D01*
X130371434Y-102056566D01*
X130239722Y-101968559D01*
X130100541Y-101875561D01*
X129850440Y-101825813D01*
X129850440Y-100577000D01*
X129806162Y-100341683D01*
X129667090Y-100125559D01*
X129454890Y-99980569D01*
X129203000Y-99929560D01*
X126803000Y-99929560D01*
X126567683Y-99973838D01*
X126351559Y-100112910D01*
X126206569Y-100325110D01*
X126162648Y-100542000D01*
X125300868Y-100542000D01*
X124958535Y-100199667D01*
X124859117Y-99959057D01*
X124596327Y-99695808D01*
X124252799Y-99553162D01*
X123885000Y-99552842D01*
X123885000Y-97613234D01*
X123984838Y-97372799D01*
X123985162Y-97000833D01*
X123843117Y-96657057D01*
X123580327Y-96393808D01*
X123236799Y-96251162D01*
X122864833Y-96250838D01*
X122521057Y-96392883D01*
X122257808Y-96655673D01*
X122115162Y-96999201D01*
X122114838Y-97371167D01*
X114777440Y-97371167D01*
X114777440Y-97340000D01*
X114733162Y-97104683D01*
X114594090Y-96888559D01*
X114381890Y-96743569D01*
X114130000Y-96692560D01*
X112222838Y-96692560D01*
X112112283Y-96581812D01*
X112084443Y-96570252D01*
X112110086Y-96559656D01*
X112222498Y-96447440D01*
X114130000Y-96447440D01*
X114365317Y-96403162D01*
X114581441Y-96264090D01*
X114726431Y-96051890D01*
X114777440Y-95800000D01*
X114777440Y-94800000D01*
X114733162Y-94564683D01*
X114594090Y-94348559D01*
X114381890Y-94203569D01*
X114130000Y-94152560D01*
X112222838Y-94152560D01*
X112112283Y-94041812D01*
X112084443Y-94030252D01*
X112110086Y-94019656D01*
X112222498Y-93907440D01*
X114130000Y-93907440D01*
X114365317Y-93863162D01*
X114581441Y-93724090D01*
X114726431Y-93511890D01*
X114777440Y-93260000D01*
X114777440Y-92260000D01*
X114733162Y-92024683D01*
X114594090Y-91808559D01*
X114381890Y-91663569D01*
X114130000Y-91612560D01*
X112222838Y-91612560D01*
X112112283Y-91501812D01*
X112084443Y-91490252D01*
X112110086Y-91479656D01*
X112222498Y-91367440D01*
X114130000Y-91367440D01*
X114365317Y-91323162D01*
X114581441Y-91184090D01*
X114726431Y-90971890D01*
X114777440Y-90720000D01*
X114777440Y-89720000D01*
X114733162Y-89484683D01*
X114594090Y-89268559D01*
X114381890Y-89123569D01*
X114130000Y-89072560D01*
X112222838Y-89072560D01*
X112112283Y-88961812D01*
X111566681Y-88735258D01*
X110975911Y-88734743D01*
X110429914Y-88960344D01*
X110011812Y-89377717D01*
X109992049Y-89425312D01*
X109773958Y-89355647D01*
X109641334Y-89488271D01*
X109588327Y-89360301D01*
X109499210Y-89271185D01*
X109594353Y-89176042D01*
X109514080Y-88924741D01*
X108958721Y-88723282D01*
X108368542Y-88749685D01*
X107945920Y-88924741D01*
X107894729Y-89085000D01*
X107760750Y-89085000D01*
X107602000Y-89243750D01*
X107602000Y-89382493D01*
X107506778Y-89412910D01*
X107479630Y-89385762D01*
X107362745Y-89502647D01*
X107348000Y-89380483D01*
X107348000Y-89243750D01*
X107189250Y-89085000D01*
X105773691Y-89085000D01*
X105540302Y-89181673D01*
X105361673Y-89360301D01*
X105265000Y-89593690D01*
X105265000Y-89934250D01*
X105423750Y-90093000D01*
X105778600Y-90093000D01*
X105776691Y-90098931D01*
X105796921Y-90347000D01*
X105423750Y-90347000D01*
X105265000Y-90505750D01*
X105265000Y-90846310D01*
X105361673Y-91079699D01*
X105540302Y-91258327D01*
X105773691Y-91355000D01*
X107189250Y-91355000D01*
X107348000Y-91196250D01*
X107348000Y-91059517D01*
X107362745Y-90937353D01*
X107479630Y-91054238D01*
X107506778Y-91027090D01*
X107602000Y-91057507D01*
X107602000Y-91196250D01*
X107760750Y-91355000D01*
X107894729Y-91355000D01*
X107937852Y-91490000D01*
X107894729Y-91625000D01*
X107760750Y-91625000D01*
X107602000Y-91783750D01*
X107602000Y-91922493D01*
X107506778Y-91952910D01*
X107479630Y-91925762D01*
X107362745Y-92042647D01*
X107348000Y-91920483D01*
X107348000Y-91783750D01*
X107189250Y-91625000D01*
X105773691Y-91625000D01*
X105540302Y-91721673D01*
X105361673Y-91900301D01*
X105265000Y-92133690D01*
X105265000Y-92474250D01*
X105423750Y-92633000D01*
X105778600Y-92633000D01*
X105776691Y-92638931D01*
X105796921Y-92887000D01*
X105423750Y-92887000D01*
X105265000Y-93045750D01*
X105265000Y-93386310D01*
X105361673Y-93619699D01*
X105540302Y-93798327D01*
X105773691Y-93895000D01*
X107189250Y-93895000D01*
X107348000Y-93736250D01*
X107348000Y-93599517D01*
X107362745Y-93477353D01*
X107479630Y-93594238D01*
X107506778Y-93567090D01*
X107602000Y-93597507D01*
X107602000Y-93736250D01*
X107760750Y-93895000D01*
X107894729Y-93895000D01*
X107937852Y-94030000D01*
X107894729Y-94165000D01*
X107760750Y-94165000D01*
X107602000Y-94323750D01*
X107602000Y-94462493D01*
X107506778Y-94492910D01*
X107479630Y-94465762D01*
X107362745Y-94582647D01*
X107348000Y-94460483D01*
X107348000Y-94323750D01*
X107189250Y-94165000D01*
X105773691Y-94165000D01*
X105540302Y-94261673D01*
X105361673Y-94440301D01*
X105265000Y-94673690D01*
X105265000Y-95014250D01*
X105423750Y-95173000D01*
X105778600Y-95173000D01*
X105776691Y-95178931D01*
X105796921Y-95427000D01*
X105423750Y-95427000D01*
X105265000Y-95585750D01*
X105265000Y-95926310D01*
X105361673Y-96159699D01*
X105540302Y-96338327D01*
X105773691Y-96435000D01*
X107189250Y-96435000D01*
X107348000Y-96276250D01*
X107348000Y-96139517D01*
X107362745Y-96017353D01*
X107479630Y-96134238D01*
X107506778Y-96107090D01*
X107602000Y-96137507D01*
X107602000Y-96276250D01*
X107760750Y-96435000D01*
X107894729Y-96435000D01*
X107935181Y-96561640D01*
X107889914Y-96580344D01*
X107777502Y-96692560D01*
X105900000Y-96692560D01*
X105664683Y-96736838D01*
X105448559Y-96875910D01*
X105303569Y-97088110D01*
X105252560Y-97340000D01*
X104710000Y-97340000D01*
X104710000Y-90594092D01*
X104802046Y-90502046D01*
X104955954Y-90271705D01*
X105010000Y-90000000D01*
X105010000Y-87036500D01*
X105104155Y-87264372D01*
X105732321Y-87893636D01*
X106553481Y-88234611D01*
X107442619Y-88235387D01*
X108264372Y-87895845D01*
X108893636Y-87267679D01*
X109234611Y-86446519D01*
X109235387Y-85557381D01*
X108895845Y-84735628D01*
X108267679Y-84106364D01*
X108035608Y-84010000D01*
X111790000Y-84010000D01*
X111790000Y-84449406D01*
X111346627Y-84265301D01*
X110656401Y-84264699D01*
X110018485Y-84528281D01*
X109529996Y-85015918D01*
X109265301Y-85653373D01*
X109264699Y-86343599D01*
X109528281Y-86981515D01*
X110015918Y-87470004D01*
X110653373Y-87734699D01*
X111343599Y-87735301D01*
X111981515Y-87471719D01*
X112470004Y-86984082D01*
X112734699Y-86346627D01*
X112734701Y-86343599D01*
X145264699Y-86343599D01*
X145528281Y-86981515D01*
X146015918Y-87470004D01*
X146653373Y-87734699D01*
X147343599Y-87735301D01*
X147981515Y-87471719D01*
X148470004Y-86984082D01*
X148734699Y-86346627D01*
X148735301Y-85656401D01*
X148471719Y-85018485D01*
X147984082Y-84529996D01*
X147346627Y-84265301D01*
X146656401Y-84264699D01*
X146018485Y-84528281D01*
X145529996Y-85015918D01*
X145265301Y-85653373D01*
X145264699Y-86343599D01*
X112734701Y-86343599D01*
X112734864Y-86157261D01*
X113000000Y-86210000D01*
X116000000Y-86210000D01*
X116271705Y-86155954D01*
X116502046Y-86002046D01*
X117002046Y-85502046D01*
X117155954Y-85271705D01*
X117210000Y-85000000D01*
X117210000Y-83794092D01*
X117294092Y-83710000D01*
X143405908Y-83710000D01*
X143497954Y-83802046D01*
G36*
X109773958Y-96164353D02*
X109991640Y-96094819D01*
X110010344Y-96140086D01*
X110427717Y-96558188D01*
X110455557Y-96569748D01*
X110429914Y-96580344D01*
X110011812Y-96997717D01*
X110000252Y-97025557D01*
X109989656Y-96999914D01*
X109572283Y-96581812D01*
X109524688Y-96562049D01*
X109594353Y-96343958D01*
X109499210Y-96248815D01*
X109588327Y-96159699D01*
X109641334Y-96031729D01*
X109773958Y-96164353D01*
X109773958Y-96164353D01*
G37*
X109773958Y-96164353D02*
X109991640Y-96094819D01*
X110010344Y-96140086D01*
X110427717Y-96558188D01*
X110455557Y-96569748D01*
X110429914Y-96580344D01*
X110011812Y-96997717D01*
X110000252Y-97025557D01*
X109989656Y-96999914D01*
X109572283Y-96581812D01*
X109524688Y-96562049D01*
X109594353Y-96343958D01*
X109499210Y-96248815D01*
X109588327Y-96159699D01*
X109641334Y-96031729D01*
X109773958Y-96164353D01*
G36*
X107018748Y-95285858D02*
X107004605Y-95300000D01*
X107018748Y-95314143D01*
X106905890Y-95427000D01*
X106744110Y-95427000D01*
X106631253Y-95314143D01*
X106645395Y-95300000D01*
X106631253Y-95285858D01*
X106744110Y-95173000D01*
X106905890Y-95173000D01*
X107018748Y-95285858D01*
X107018748Y-95285858D01*
G37*
X107018748Y-95285858D02*
X107004605Y-95300000D01*
X107018748Y-95314143D01*
X106905890Y-95427000D01*
X106744110Y-95427000D01*
X106631253Y-95314143D01*
X106645395Y-95300000D01*
X106631253Y-95285858D01*
X106744110Y-95173000D01*
X106905890Y-95173000D01*
X107018748Y-95285858D01*
G36*
X107018748Y-92745858D02*
X107004605Y-92760000D01*
X107018748Y-92774143D01*
X106905890Y-92887000D01*
X106744110Y-92887000D01*
X106631253Y-92774143D01*
X106645395Y-92760000D01*
X106631253Y-92745858D01*
X106744110Y-92633000D01*
X106905890Y-92633000D01*
X107018748Y-92745858D01*
X107018748Y-92745858D01*
G37*
X107018748Y-92745858D02*
X107004605Y-92760000D01*
X107018748Y-92774143D01*
X106905890Y-92887000D01*
X106744110Y-92887000D01*
X106631253Y-92774143D01*
X106645395Y-92760000D01*
X106631253Y-92745858D01*
X106744110Y-92633000D01*
X106905890Y-92633000D01*
X107018748Y-92745858D01*
G36*
X107018748Y-90205858D02*
X107004605Y-90220000D01*
X107018748Y-90234143D01*
X106905890Y-90347000D01*
X106744110Y-90347000D01*
X106631253Y-90234143D01*
X106645395Y-90220000D01*
X106631253Y-90205858D01*
X106744110Y-90093000D01*
X106905890Y-90093000D01*
X107018748Y-90205858D01*
X107018748Y-90205858D01*
G37*
X107018748Y-90205858D02*
X107004605Y-90220000D01*
X107018748Y-90234143D01*
X106905890Y-90347000D01*
X106744110Y-90347000D01*
X106631253Y-90234143D01*
X106645395Y-90220000D01*
X106631253Y-90205858D01*
X106744110Y-90093000D01*
X106905890Y-90093000D01*
X107018748Y-90205858D01*
M02*
