G04 #@! TF.FileFunction,Soldermask,Bot*
%FSLAX46Y46*%
G04 Gerber Fmt 4.6, Leading zero omitted, Abs format (unit mm)*
G04 Created by KiCad (PCBNEW 4.0.7) date 09/04/18 00:29:55*
%MOMM*%
%LPD*%
G01*
G04 APERTURE LIST*
%ADD10C,0.100000*%
%ADD11C,3.600000*%
%ADD12C,2.600000*%
%ADD13R,2.100000X2.100000*%
%ADD14O,2.100000X2.100000*%
%ADD15R,2.800000X2.000000*%
%ADD16O,2.800000X2.000000*%
%ADD17R,3.900000X3.200000*%
%ADD18R,1.750000X1.750000*%
%ADD19O,1.750000X1.750000*%
%ADD20C,1.200000*%
%ADD21C,1.400000*%
%ADD22R,3.550000X1.400000*%
%ADD23C,2.100000*%
G04 APERTURE END LIST*
D10*
D11*
X107000000Y-130000000D03*
X107000000Y-86000000D03*
X151000000Y-86000000D03*
X151000000Y-130000000D03*
D12*
X111000000Y-130000000D03*
X111000000Y-86000000D03*
X147000000Y-86000000D03*
X147000000Y-130000000D03*
D13*
X118000000Y-131000000D03*
D14*
X120540000Y-131000000D03*
D13*
X147815000Y-112680000D03*
D14*
X147815000Y-115220000D03*
D15*
X128003000Y-101377000D03*
D16*
X135623000Y-119157000D03*
X128003000Y-103917000D03*
X135623000Y-116617000D03*
X128003000Y-106457000D03*
X135623000Y-114077000D03*
X128003000Y-108997000D03*
X135623000Y-111537000D03*
X128003000Y-111537000D03*
X135623000Y-108997000D03*
X128003000Y-114077000D03*
X135623000Y-106457000D03*
X128003000Y-116617000D03*
X135623000Y-103917000D03*
X128003000Y-119157000D03*
X135623000Y-101377000D03*
D13*
X147815000Y-120935000D03*
D14*
X147815000Y-123475000D03*
D13*
X147815000Y-104425000D03*
D14*
X147815000Y-106965000D03*
D17*
X150000000Y-98500000D03*
D18*
X150000000Y-92000000D03*
D19*
X150000000Y-94000000D03*
X150000000Y-96000000D03*
D17*
X150000000Y-89500000D03*
D13*
X130162000Y-124872000D03*
D14*
X127622000Y-124872000D03*
D20*
X110000000Y-121970000D03*
D21*
X110000000Y-124510000D03*
D20*
X110000000Y-94030000D03*
D22*
X107475000Y-90220000D03*
D20*
X106825000Y-90220000D03*
D22*
X112555000Y-90220000D03*
X107475000Y-92760000D03*
X112555000Y-92760000D03*
X107475000Y-95300000D03*
X112555000Y-95300000D03*
X107475000Y-97840000D03*
X112555000Y-97840000D03*
X107475000Y-100380000D03*
X112555000Y-100380000D03*
X107475000Y-102920000D03*
X112555000Y-102920000D03*
X107475000Y-105460000D03*
X112555000Y-105460000D03*
X107475000Y-108000000D03*
X112555000Y-108000000D03*
X107475000Y-110540000D03*
X112555000Y-110540000D03*
X107475000Y-113080000D03*
X112555000Y-113080000D03*
X107475000Y-115620000D03*
X112555000Y-115620000D03*
X107475000Y-118160000D03*
X112555000Y-118160000D03*
X107475000Y-120700000D03*
X112555000Y-120700000D03*
X107475000Y-123240000D03*
X112555000Y-123240000D03*
X107475000Y-125780000D03*
X112555000Y-125780000D03*
D20*
X106825000Y-92760000D03*
X106825000Y-95300000D03*
X106825000Y-97840000D03*
X106825000Y-100380000D03*
X106825000Y-102920000D03*
X106825000Y-105460000D03*
X106825000Y-108000000D03*
X106825000Y-110540000D03*
X106825000Y-113080000D03*
X106825000Y-115620000D03*
X106825000Y-118160000D03*
X106825000Y-120700000D03*
X106825000Y-123240000D03*
X106825000Y-125780000D03*
X113175000Y-90220000D03*
X113175000Y-92760000D03*
X113175000Y-95300000D03*
X113175000Y-97840000D03*
X113175000Y-100380000D03*
X113175000Y-102920000D03*
X113175000Y-105460000D03*
X113175000Y-108000000D03*
X113175000Y-110540000D03*
X113175000Y-113080000D03*
X113175000Y-115620000D03*
X113175000Y-118160000D03*
X113175000Y-120700000D03*
X113175000Y-123240000D03*
X113175000Y-125780000D03*
D21*
X110000000Y-91490000D03*
D23*
X108730000Y-90220000D03*
X111270000Y-90220000D03*
X108730000Y-92760000D03*
X111270000Y-92760000D03*
X108730000Y-95300000D03*
X111270000Y-95300000D03*
X108730000Y-97840000D03*
X111270000Y-97840000D03*
X108730000Y-100380000D03*
X111270000Y-100380000D03*
X108730000Y-102920000D03*
X111270000Y-102920000D03*
X108730000Y-105460000D03*
X111270000Y-105460000D03*
X108730000Y-108000000D03*
X111270000Y-108000000D03*
X108730000Y-110540000D03*
X111270000Y-110540000D03*
X108730000Y-113080000D03*
X111270000Y-113080000D03*
X108730000Y-115620000D03*
X111270000Y-115620000D03*
X108730000Y-118160000D03*
X111270000Y-118160000D03*
X108730000Y-120700000D03*
X111270000Y-120700000D03*
X108730000Y-123240000D03*
X111270000Y-123240000D03*
X108730000Y-125780000D03*
X111270000Y-125780000D03*
M02*
